<?xml version="1.0" encoding="UTF-8"?>
<svg id="Layer_1" data-name="Layer 1" xmlns="http://www.w3.org/2000/svg" viewBox="0 0 476.36 690.77">
  <defs>
    <style>
      .cls-1 {
        fill: none;
      }

      .cls-2 {
        fill: #e6007e;
      }
    </style>
  </defs>
  <g id="Objects">
    <g>
      <path d="M272.93,646.07c-9.14-5.18-19.39-8.71-25.73-17.56-6.15-8.58-7.36-19.79-7.97-30.01-.77-12.77-.98-25.61-.82-38.41.17-13.86,1.33-27.73,1.33-41.59,0-6.31.03-12.54,2.89-18.32,2.72-5.51,8.13-9.66,12.88-13.32,9.29-7.17,17.73-14.4,25.11-23.63,7.89-9.86,13.67-21.23,15-33.9.2-1.96-2.51-2.31-3.43-.93-6.99,10.53-15.99,19.62-25.27,28.12-8.68,7.94-18.01,15.37-28.09,21.48-.18-12.29-3.31-24.96-8.04-36.15-4.63-10.98-12.06-23.68-24.66-26.42-2.34-.51-3.37,2.91-1.29,3.65,12.35,22.36,13.5,48.32,13.06,73.33-.2,11.51-.77,23.01-.73,34.52.04,11.01.29,22.01.03,33.02-.52,22.21-3.11,45.6-15.65,64.57-11.62,17.58-32.95,25.43-44.08,43.3-2.72,4.37-4.45,9.34-5.7,14.31-.52,2.04,2.17,3.07,3.3,1.39,7.76-11.54,19.07-20.26,32.61-23.65,11.05-2.77,21.2-3.74,29.75-11.56,8.6,10.42,24.74,9.52,37,11.41,17.65,2.72,36.78,12.66,44,29.78.77,1.83,3.48,1.7,3.57-.48.87-20.51-12.35-33.48-29.07-42.95ZM290.49,437.04c-.14.53-.3,1.05-.46,1.58-.14-.15-.3-.28-.46-.4.31-.39.62-.78.93-1.17ZM271.25,468.3c.08-.02.16-.03.23-.05-1.39,1.44-2.81,2.83-4.27,4.17,1.39-1.33,2.73-2.7,4.04-4.11ZM159.45,672.59c.33-.6.67-1.19,1.02-1.78.13.13.27.24.43.32-.49.48-.97.96-1.45,1.45ZM233.37,463.25c.36,1.84.65,3.69.9,5.54-.03-.03-.05-.06-.08-.08-.22-1.12-.47-2.23-.75-3.34-.11-.43-.29-.79-.51-1.09-.04-.18-.07-.36-.1-.55.2-.14.38-.3.55-.48Z"/>
      <path d="M171.94,46.22c-.8.35-1.54.78-2.23,1.29-2.73-9.55-4.62-19.38-5.91-29.16,2.24-.63,4.4-1.42,6.58-2.25,2.18-.83,5.08-1.53,6.65-3.29.92-1.03.27-2.52-1.08-2.61-2.12-.14-4.19,1.27-6.09,2.12-2.76,1.25-5.46,2.62-8.23,3.85-.61.27-.77.82-.65,1.34-.07.18-.11.39-.11.64.17,9.5,2.43,19.04,4.68,28.22,1.18,4.82,2.54,9.6,4.22,14.26.96,2.66,1.98,6.21,4.63,7.66,1.38.75,2.56-.71,1.99-1.99-2.25-5.14-4.17-10.44-5.82-15.85.67-.49,1.39-.91,2.16-1.22,1.34-.55,3.17-.13,4.14-1.3.47-.57.52-1.29,0-1.86-1.27-1.39-3.46-.49-4.94.15Z"/>
      <path d="M206.99,46.85c-1.81-6.26-3.8-12.47-6.16-18.54-2.21-5.66-7.33-20.76-15.99-18.1-8.18,2.51-4.91,18.41-3.99,24.1,1.52,9.49,3.66,20.11,8.22,28.69.94,1.76,3.37.21,2.61-1.53-1.84-4.25-3.14-8.9-4.21-13.56,2.54-.86,5.05-1.61,7.71-2.08,2.28-.4,5.05-.26,7.04-1.54.52,1.72,1.03,3.45,1.52,5.18.81,2.84,1.25,6.26,2.83,8.79.83,1.33,3.23.89,3.11-.84-.25-3.56-1.7-7.17-2.68-10.58ZM194.34,42.76c-2.53.64-5.11,1.37-7.44,2.57-.53-2.44-1.02-4.88-1.5-7.24-1.01-4.95-1.76-9.98-1.91-15.04-.08-2.49-.37-8.43,2.76-9.42,6-1.9,11.82,17.94,13.01,21.4.73,2.14,1.43,4.29,2.1,6.44-2.23-.34-4.94.76-7.02,1.29Z"/>
      <path d="M229.09,4.82c-.35-1.49-2.17-1.74-3.2-.85-3.55,3.07-5.99,7.01-8.46,10.94-3.41-4.03-7.08-7.65-11.66-10.43-1.15-.7-3.03.18-2.87,1.65,1.81,17.24,7.25,33.98,11.04,50.85.33,1.46,2.74,1.15,2.62-.35-1.24-15.81-7.02-30.83-9.33-46.48,3.41,2.69,6.27,5.92,9.04,9.36.82,1.01,2.39.55,3.01-.39,2.23-3.41,4.24-6.96,6.9-10.01,3.57,14.61,7.95,30.11,7.17,45.11-.13,2.45,3.67,2.44,3.8,0,.86-16.46-4.34-33.54-8.07-49.4Z"/>
      <path d="M247.85,50.21c-.53-.8-1.15-3.88-1.54-5.25-1.01-3.59-1.81-7.23-2.56-10.89-.82-4.05-1.4-8.14-2.05-12.22-.48-3.03-1.3-6.8-.85-9.89.15-1.05-1.2-1.44-1.59-.44-2.82,7.3-.73,16.18.71,23.59.8,4.13,1.74,8.25,2.93,12.29.57,1.92,1.07,4.35,3.15,5.14,1.3.5,2.52-1.22,1.79-2.33Z"/>
      <path d="M242.54,7.05c-1.17-.84-2.36-1.65-3.57-2.45,1.24-.9,2.85-2.14,2.36-3.64-.28-.84-1.52-1.38-2.17-.57.24-.3,0-.02-.17.08-.38.22-.6.61-.9.92-.52.54-1.08,1.05-1.64,1.55-.99-.64-1.97-1.27-2.95-1.92-1.18-.77-2.6,1.04-1.52,1.96.75.64,1.53,1.25,2.3,1.87-1.05.91-2.1,1.83-3.04,2.84-1.02,1.1.52,2.63,1.64,1.64,1.11-.98,2.31-1.88,3.5-2.78,1.47,1.16,2.96,2.3,4.44,3.44,1.73,1.34,3.52-1.66,1.73-2.95Z"/>
      <path d="M264.11,50.44c-3.27,1.87-4.16.75-5.32-2.68-1.14-3.37-1.57-7.01-2-10.53-1.35-11.22-3.77-22.28-5.2-33.51-.18-1.41-2.07-1.44-2.22,0-.82,8.04.75,16.52,2.13,24.44.93,5.35,1.41,10.75,2.35,16.1.62,3.53,1.53,7.94,4.39,10.4,2.89,2.49,6.24.6,8.05-2.05.93-1.36-.86-2.93-2.17-2.17Z"/>
      <path d="M280.94,12.47c1.03-2.43.83-6.74-1.99-7.82-.75-.29-1.74.31-1.89,1.08-.36,1.75,1.02,3.18.57,4.98-.36,1.43-1.83,2.17-3.14,2.48-4.99,1.19-7.4-4.43-8.56-8.13-.36-1.14-1.97-.89-2.04.28-.33,5.76,3.42,10.97,8.9,11.5-.78,5.91-.06,11.83.73,17.75.48,3.63,1.1,7.25,1.56,10.88.39,3.05.23,6.24,1.03,9.21.43,1.6,2.89,1.66,3.29,0,1.29-5.4-.59-12.07-1.41-17.49-1.04-6.85-2.01-13.65-2-20.58,2.14-.54,4.12-2.11,4.98-4.14Z"/>
      <path class="cls-2" d="M150.26,32.31c-1.77-2.28-5.2-4.93-8.23-3.13-2.56,1.52-3.32,4.27-3.39,7.09-2.49-1.79-5.38-2.66-8.66-1.59-4.26,1.39-6.07,6.1-6.33,10.16-.72,11.29,13.69,14.94,22.32,16.14.48.07.94-.17,1.23-.52,0,.06,0,.11,0,.16,0,1.58,1.97,1.92,2.79.76,2.6-3.71,2.89-10.08,3.47-14.45.67-5.07.04-10.46-3.19-14.63ZM130.21,38.52c-1.13,1.18-1.95,2.46-2.48,3.79.18-.62.41-1.23.71-1.8.52-.99,1.13-1.68,1.81-2.11-.01.04-.03.08-.04.12ZM142.17,41.24c.33.51.77,1.01,1.32,1.49-.57-.3-1.13-.61-1.71-.9.16-.17.29-.37.39-.59ZM137.8,51.22c-.15-.06-.3-.13-.44-.19-.34-.55-.64-1.1-.9-1.68.44.46.89.91,1.36,1.35,0,.17,0,.35-.02.52ZM136.77,39.42c-.95-.42-1.9-.84-2.86-1.23-.2-.08-.4-.12-.58-.11-.1-.08-.19-.17-.28-.25,1.26.16,2.55.77,3.73,1.59ZM133.4,52.49c.14.12.27.25.42.36.04.08.1.17.15.25-.26.08-.51.24-.66.46-.21-.11-.43-.2-.64-.31.31-.18.57-.44.74-.76ZM148.28,53.82c-.08-.4-.17-.8-.26-1.2,1.5-3.71,2.46-7.74,2.2-11.58,0,0,0,0,0-.01.02.15.04.3.05.45.41,4.27-.96,8.3-2,12.34Z"/>
      <path d="M130.83,76.49c-1.37.74-2.82,1.8-4.15,3.04-3.64-3.61-6.58-8.35-9.3-12.45-3.76-5.69-7.35-11.58-10.64-17.56.66-.49,1.24-1.04,1.63-1.72.57-1-.14-2.4-1.35-2.35-2.28.09-4.27,2-6,3.36-1.95,1.53-3.91,3.24-5.46,5.18-1.2,1.5.58,3.25,2.08,2.08,1.88-1.46,3.66-3,5.61-4.37.28-.2.58-.38.89-.57,2.99,6.99,6.99,13.53,11.19,19.85,2.04,3.07,5.06,8.54,8.74,11.49-.84,1.15-1.51,2.37-1.91,3.57-.67,2.02,2.5,3.37,3.44,1.45.52-1.07,1.25-2.14,2.1-3.15.32.07.64.12.96.14,1.31.07,1.63-1.33,1.06-2.21,1.02-.9,2.1-1.66,3.18-2.23,2.34-1.22.26-4.79-2.07-3.54Z"/>
      <path d="M336.08,454.06s.01,0,.02,0c-2.22-2.19-3.97-5.14-5.59-8.17.89-1.34,2.09-2.13,3.47-2.95.86-.51,1.17-1.64.66-2.51-.54-.93-1.6-1.07-2.51-.66-1.27.58-2.42,1.7-3.3,2.95-.81-1.53-1.63-3.02-2.5-4.38-3.36-5.25-7.24-10.29-11.27-15.06,2.59-.78,5.48-1.86,7.32-3.82,1.7-1.81-.84-4.26-2.69-2.69-1.9,1.61-3.94,3-6.26,3.95-.5.2-.8.58-.92,1-.66.32-1.12,1.14-.64,1.88,4.55,7.05,9.26,13.99,13.61,21.16,2.07,3.41,3.93,6.94,5.82,10.45.73,1.37,2.6,2.05,4.03,1.8,1.4-.24,1.6-2.05.76-2.94Z"/>
      <path d="M361.75,439.7c-1.71-2.82-4.7-3.68-7.57-3.2,1.28-5.7-.7-12-4.25-16.96-4.76-6.65-14.72-11.81-22.31-6.51-.37.26-.54.65-.55,1.04-.25.3-.36.72-.19,1.2,2.52,6.95,6.97,13.4,11.24,19.37,2.05,2.86,4.19,5.64,6.45,8.34,1.46,1.74,3.29,4.29,5.7,4.62,1.3.18,2.32-.93,1.69-2.2-.36-.73-.86-1.39-1.41-2,.64-.7,1.19-1.44,1.67-2.2,2.06-1.72,4.58-.36,7.22.8,1.43.62,3.25-.72,2.3-2.3ZM340.9,431.61c-3.91-5.41-7.61-10.94-11-16.68,6.62-1.52,11.9.7,16.43,6.14,4.11,4.94,6.14,12.56,2.57,18.12-.4.4-.77.83-1.08,1.29-2.46-2.83-4.72-5.83-6.92-8.87Z"/>
      <path d="M363.99,424.54c-4.28-5.21-8.7-10.35-13.13-15.44-1.11-1.27-2.8.35-2.18,1.69,2.1,4.56,5.86,8.53,8.96,12.43,2.23,2.81,7.52,7.73,8.35,10.53.42,1.42,2.1,1.44,2.89.38,2.1-2.81-3.36-7.74-4.89-9.59Z"/>
      <path d="M348.61,400.84c-1.29-.3-2.72.39-3.94.74-.27.08-.54.15-.81.22-.06-1.39-.18-2.78-.41-4.18-.34-2.07-3.81-1.2-3.19.88.4,1.33.65,2.67.83,4.02-.93.24-1.85.48-2.77.76-1.54.46-.89,2.67.66,2.38.81-.15,1.61-.28,2.42-.4.08.8.15,1.61.23,2.41.14,1.31,1.9,1.31,2.04,0,.1-.93.16-1.86.19-2.78.7-.11,1.41-.21,2.11-.33,1.38-.23,3.57-.7,3.56-2.5,0-.55-.38-1.1-.94-1.23Z"/>
      <path d="M387.23,418.96c-.54-.92-2.06-1.02-2.57,0-1.42,2.8-1.05,4.4-4.87,3.35-2.06-.57-4.06-1.65-5.9-2.92,1.96-.7,3.6-2.02,3.08-4.08-.29-1.17-2.22-1.59-2.75-.36-.52,1.21-1.61,2.05-2.85,2.52-.23-.19-.46-.38-.68-.57-2.9-2.52-5.36-5.74-7.94-8.58-2.95-3.26-5.84-6.83-7.73-10.85,2.35.01,4.57-1.27,5.98-3.31,1.29-1.86-1.72-3.56-3.01-1.76-1.15,1.59-2.54,2.37-4.53,1.94-1.53-.33-2.2,1.4-1.32,2.31,1,5.66,4.18,10.04,7.85,14.45,3.64,4.36,7.44,8.72,12.17,11.92,3,2.03,7.64,4.55,11.42,3.67,3.41-.79,5.51-4.55,3.66-7.71Z"/>
      <path d="M405.79,404.67c-5-4.53-10.18-8.86-15.29-13.26-4.76-4.1-8.9-9.08-13.7-13.05-1.55-1.28-3.87.31-2.84,2.19,2.71,5,8.31,9.07,12.51,12.77,2.13,1.88,4.29,3.71,6.46,5.55-8.18-4.29-16.07-9.26-25.13-11.45-.36-.09-.69.04-.93.26-.12-.08-.23-.18-.35-.26-1.17-.84-2.27.91-1.45,1.87,4.33,5.07,9.23,9.82,14.07,14.4,4.15,3.93,8.95,9.15,14.37,11.27,1.67.65,2.81-1.73,1.67-2.88-4.36-4.41-9.86-7.96-14.45-12.22-2.96-2.75-5.9-5.61-8.99-8.28,10.78,5.36,20.6,12.6,32.11,16.44,1.89.63,3.42-2.01,1.95-3.35Z"/>
      <path d="M417.11,387.35c-1.97-5.3-5.87-9.86-10.12-13.48-6.31-5.38-20.17-11.71-25.1-1.14-.09.19-.1.38-.09.56-.27.33-.37.81-.12,1.36,3.05,6.54,8.43,12.05,13.66,16.89,2.63,2.43,5.46,4.65,8.36,6.74,2.16,1.55,5.09,3.95,7.89,3.86,1.48-.05,2.13-1.74,1.17-2.82-1.52-1.71-4.14-2.64-6.05-3.9-3.02-2-5.79-4.35-8.52-6.72-5.25-4.57-10.06-9.63-14.3-15.15,6.78-5.68,15.09-1.52,21.08,3.66,3.27,2.83,5.96,6.3,7.88,10.18,2.03,4.1,1.36,6.94.21,11.02-.51,1.82,1.7,2.9,3.01,1.75,3.43-3.01,2.42-9.07,1.04-12.8Z"/>
      <path d="M433.67,378.01c-.95-3.82-5.17-5.88-8.42-7.39-3.93-1.82-8.1-3.12-12.25-4.36-2.59-.78-4.67-2.21-6.7-4-1.16-1.02-2.15-2.21-2.98-3.51-1.33-2.09.44-2.88,1.81-4.02.6-.5.27-1.6-.46-1.76-4.28-.94-6.84,3.15-5.01,6.92,2.1,4.31,6.78,8.38,11.36,9.84,4.4,1.4,8.81,2.72,13,4.68,1.92.9,4.18,2.01,5.45,3.77,1.44,2.02-3.25,3.89-4.48,4.47-2.41,1.15-.31,4.74,2.09,3.58,3-1.44,7.63-4.13,6.61-8.23Z"/>
      <path class="cls-2" d="M460.71,329.57c-.72-.81-1.73-.45-2.54-.05-.2.1-.34.24-.46.39-1.13.64-2.58,1.41-3.97,1.92-.23-.6-.52-1.13-.87-1.49-.67-.67-1.67-1.21-2.67-1.72.03-.09.07-.18.08-.28.32-2.83,1.03-5.76,2.11-8.39.81-1.97-2.85-2.91-3.12-.42-.3,2.76-1.11,5.27-1.06,8.03-.74-.44-1.5-.84-2.28-1.19.34-.41.67-.83.95-1.3,2.56-4.14.66-9.34-2.98-12.07-4.79-3.59-10.84-.31-13.61,4.13-.13.2-.19.42-.21.62-2.45,3.28-1.7,8.02,2.06,10.73,3.67,2.66,8.4,2.21,11.83-.28.33.17.65.35.98.54-.24.05-.48.15-.68.34-1.01.97-.64,2.78-.63,4.05,0,.88.03,1.71.1,2.54-.15.08-.3.18-.44.32-1.76,1.81-3.49,3.64-5.26,5.44-.83.84-1.67,1.67-2.5,2.52-.34.34-.61.68-.82,1.12-.07.11-.1.23-.12.36-.22.09-.4.27-.36.54.01.11.05.19.09.28-1.07-.6-2.15-1.19-3.22-1.79,1.46-2.51,1.82-5.55.51-8.56-2.27-5.2-8.28-6.74-12.79-3.29-.44.34-.64.79-.67,1.24-7.77,5.2-1.88,19.97,7.89,15.22,1.4-.68,2.64-1.61,3.64-2.7,1.14.92,2.35,1.77,3.55,2.62-1.81.81-3.55,1.78-5.39,2.52-1.13.45-2.93.73-3.49,1.98-.2.46-.16.83.16,1.22,1.05,1.31,2.86-.2,3.72-.88,1.91-1.5,3.9-2.89,5.98-4.14,3.24,2.34,6.23,4.81,7.37,8.81.1.53.21,1.06.35,1.59.62,2.29,3.75,1.26,3.45-.95-.11-.8-.29-1.53-.51-2.24-.26-1.46-.42-2.93-.69-4.38,1.3.06,2.59.23,3.84.71,2.03.78,2.91-2.49.9-3.25-2.18-.83-4.55-.83-6.86-.86-.79-.01-1.41.55-1.61,1.24-1.62-1.4-3.49-2.58-5.44-3.7.11,0,.22-.02.33-.06-.34.12-.09.06.28.06.25,0,.5-.09.72-.17.71-.24,1.32-.86,1.89-1.32,2.34-1.86,4.52-4.02,6.66-6.12.58.18,1.3-.07,1.47-.76.43-1.72.5-3.34.51-5.12,0-1,.23-2.33-.17-3.33,1.09.73,2.14,1.52,3.09,2.36.39.34.72.83,1.01,1.4-.03.13-.05.25-.04.38.08,2.31.42,5.37,1.84,7.28.92,1.24,3.29,1.01,3.19-.86-.1-1.84-.47-3.55-1.03-5.3.97-.4,1.93-.92,2.8-1.32,1.31-.6,3.01-1.16,3.57-2.61.2-.54-.06-1.16-.42-1.56ZM431.96,322.45c-.08.03-.15.08-.23.12-.17-.64-.17-1.26-.06-1.85.24.34.51.65.79.96-.27.17-.45.44-.5.76ZM444.59,322.34c-.07.26-.16.52-.27.76.67-2.21.48-4.61-1.09-5.96-.42-.36-.93-.59-1.48-.71-.23-.49-.45-.93-.65-1.33.08.03.15.06.23.09,2.63,1.25,4,4.37,3.26,7.14ZM426.43,337.63c.04.12.08.25.12.39-.32-.43-.78-.81-1.28-1.16.51-.06.94.13,1.16.77ZM425.76,343.97c.25-1.13.18-2.51.78-3.43.14-.21.23-.41.3-.61.08,1.51-.16,3.17-1.08,4.04Z"/>
      <path class="cls-1" d="M432.43,349.18s.01-.02,0-.02"/>
      <path class="cls-2" d="M107.49,73.6c-.93-1.92-3.05-2.17-4.89-1.54-4.8,1.64-9.26,7.46-10.15,12.36-.03.16-.03.31,0,.45-.02.05-.05.1-.07.16-2.02,1.4-3.17,3.72-3.23,6.2-3.86-3.71-9.09-3.97-13.45-1.22.06-.91.01-1.83-.17-2.69-.75-3.51-4.26-4.95-7.28-3.95,3.04-3.41,5.99-6.91,9.15-10.21,1.73-1.81,3.58-3.68,5.8-4.89,1.85-1.02.83,3.56,1,4.73.15,1.06,1.79,1.17,2.24.29,1.09-2.11,1.59-6.25-.66-7.89-2.1-1.52-4.84.41-6.49,1.71-5.6,4.42-10.15,10.32-14.2,16.14-3.17.2-6.02,5.8-6.02,8.44-.01,5.94,7.33,8.07,11.91,5.94,2.26-1.05,3.74-3.22,4.38-5.61,4.44-2.66,9.61-1.87,13.05,2.46.38.48.95.51,1.43.3,1.6,3.63,5.73,5.23,9.46,3.52,2.31-1.06,4.1-2.16,5.05-4.63.75-1.95.1-4.24-.88-5.96-1.1-1.92-2.98-3.26-5.02-4-.85-.31-2.16-.5-3.36-.36,1.65-3.15,4.13-5.81,7.17-7.69.37-.23,2.06-1.25,2.42-.68,1.01,1.61-.88,4.2-.34,6.01.26.88,1.22,1,1.87.49,1.87-1.47,2.31-5.74,1.29-7.86ZM70.33,94.38c-2.52,1.83-7.21.92-7.96-2.35-.32-1.41.51-3,1.27-4.11.6-.87,1.42-1.34,2.27-1.81.29.41.82.69,1.37.57,2.29-.52,4.66-1.68,5.42,1.4.55,2.22-.55,4.97-2.37,6.3ZM96.73,86.55c1.39.2,2.54,1.01,3.47,2.02,2.24,2.42,1.31,5.45-1.61,6.62-2.65,1.06-5.04.78-6.1-2.21-.83-2.33-.21-4.56,1.28-6.23.95.08,1.94-.34,2.96-.2Z"/>
      <path d="M54.42,106.36c.95.61,1.97-.76,1.19-1.54-6.27-6.23-12.82.44-16.54,5.93-3.92,5.78-7.12,13.59-4.2,20.46,1.84,4.34,7.13,5.38,11.07,3.47,6.15-2.99,8.57-9.98,9.15-16.35.09-.96-.87-1.78-1.77-1.77-2.19.01-5.62-.42-6.83,1.86-.47.89.1,2.18,1.21,2.12,1.21-.07,2.4-.22,3.6-.33-.67,4.1-2.33,8.22-5.83,10.63-2.46,1.69-5.65,1.74-7.26-1.02-2.44-4.15.09-10.47,2.14-14.19,2.58-4.69,7.83-13.34,14.09-9.29Z"/>
      <path d="M72.21,111.9c-.45-6.23-5.81-8.22-10.25-4.36-.47.04-.9.3-.99.86-.88,5.2-2.12,10.27-3.53,15.35-.87,3.14-3.79,8.98-2.08,12.1.43.78,1.49.85,2.11.27,1.22-1.14,1.83-3.32,2.22-5.59,1.87,2.32,3.32,5.96,5.76,7.43.94.56,2.01-.18,2.07-1.19.14-2.52-2.1-5.35-4.1-7.54,5.79-3.61,9.29-10.46,8.79-17.33ZM60.56,124.61c1.08-5.07,2.37-10.2,2.74-15.38,1.62-.87,3.66-1.82,4.89.01,1.11,1.65.93,4.09.65,5.96-.78,5.14-4.06,9.46-8.65,11.74.11-.87.23-1.67.37-2.32Z"/>
      <path d="M84.1,123.99c-.22-5.26-.61-10.6-1.89-15.72-.25-1.01-1.61-1.66-2.51-1.02-4.46,3.17-5.73,9.13-6.58,14.22-.71,4.22-2.12,11.38.02,15.39.46.85,1.75.62,2-.26.32-1.1.46-2.31.54-3.54,1.69.1,3.5.12,5.02-.32.09,1.92.35,3.81,1.08,5.54.6,1.41,2.41.47,2.55-.69.53-4.4-.05-9.14-.24-13.59ZM77.36,130.73c-.53.07-1.06.11-1.59.15.03-1.97,0-3.96.2-5.75.43-3.81,1.06-9.46,3.58-12.99.86,4.76.99,9.64,1.12,14.48.03,1.12,0,2.27,0,3.43-1.1.19-2.19.55-3.31.69Z"/>
      <path d="M99.95,107.92c-.05-2.25-3.54-2.25-3.49,0,.16,7.1,2.06,14.16,2.29,21.23-1.9-6.74-3.22-13.63-7.09-19.68-.74-1.15-2.79-1.12-3.1.4-.57,2.84-2.56,27.23.98,26.63,2.37-.4,1.31-7.02,1.32-8.51.01-4.09-.06-8.26.3-12.36,3.23,7.24,4.01,15.49,7.15,22.82.6,1.4,2.89.97,3.19-.42,2.16-10.15-1.32-19.98-1.54-30.12Z"/>
      <path d="M121.99,117.96c-1.38-6.77-8.9-19.37-16.22-13.39-.6-.17-1.38.19-1.38.95,0,.13,0,.27,0,.4-.2.23-.4.47-.6.73-.44.58.07,1.26.67,1.38.22,4.2.91,8.44,1.5,12.58.41,2.9.91,5.78,1.27,8.69.2,1.62.11,3.37.57,4.94-.52.99-.29,2.41,1.1,2.8,12.5,3.46,14.99-9.67,13.08-19.07ZM111.14,133.59c.57-3.43-.86-8-1.41-11.15-.88-5.12-1.93-10.24-2.96-15.34,6.61-2.53,10.09,4.96,11.57,11.14,1.5,6.24,1.1,16.79-7.2,15.34Z"/>
      <path d="M35.62,151.19c-.62-6.66-5.42-12.78-10.99-9.48-.48-.65-1.8-.58-2.07.37-.17.61-.36,1.23-.53,1.85,0,0,0,0-.01.01-.29.33-.36.71-.29,1.04-2.5,8.52-5.28,17.21-6.65,25.87-.23,1.48,1.84,2.67,2.62,1.1.57-1.14,1.02-2.32,1.43-3.51.31.37.75.64,1.34.69,10.61.99,16.06-8.34,15.16-17.95ZM20.45,165.32c-.15-.01-.29,0-.42,0,.46-1.77.86-3.58,1.29-5.37,1.18-4.96,2.33-9.97,3.11-15.02,5.09-4.47,7.68,2.44,7.87,7.48.29,7.48-3.91,13.6-11.85,12.9Z"/>
      <path d="M50.03,161.62c-.68-5.63-2.2-11.08-4.78-16.14-.52-1.02-2.07-1.19-2.83-.37-7.15,7.73-7.07,19.43-7.43,29.33-.06,1.65,2.7,2.07,2.93.4.14-1.01.25-2.04.35-3.1.72.14,1.52.2,2.14.27,1.92.24,4.17.78,6.2.79.03,1.52.13,3.01.47,4.44.37,1.57,2.35,1.24,2.86,0,1.83-4.44.65-10.97.1-15.62ZM41.75,169.57c-1.07-.04-2.14-.11-3.21-.13-.02,0-.03,0-.05,0,.6-6.77,1.16-14.06,4.83-19.6,1.77,4.21,2.71,8.69,3.24,13.26.24,2.11.16,4.33.09,6.54-1.61-.09-3.3,0-4.89-.06Z"/>
      <path d="M66.83,178.84c-.98-2.48-3.41-4.66-5.8-6.29,6.98-8.15,9.63-31.06-4.98-26.26-.76.25-1.29.89-1.3,1.71-.04,5.65-.25,11.31-.41,16.96-.07,2.71-.14,5.43-.19,8.14-.02,1.48.77,1.98,1.01,3.1.12.58.96.52,1.11,0,.19-.65.72-1.07,1.01-1.77,2.72,1.61,4.52,4.85,7.27,6.16,1.08.51,2.82-.35,2.27-1.75ZM57.66,170.96c.08-1.65.1-3.32.17-4.96.21-5.54.42-11.08.46-16.62,8.83-1.48,4.39,17.36-.62,21.57Z"/>
      <path d="M80.57,176.06c-2.16.04-4.07.33-6.15.05,0-1.43,0-2.86-.01-4.3.9.05,1.8.09,2.69.12.83.03,1.61.11,2.38-.09.17-.02.32-.07.47-.14,0,0,.02,0,.03,0,.41-.18.63-.58.69-1.01,0-.02,0-.05,0-.08,0-.06,0-.11,0-.17,0-.06,0-.11,0-.17,0-.03,0-.05,0-.08-.06-.43-.28-.84-.69-1.01-.01,0-.02,0-.03,0-.14-.07-.29-.12-.45-.14-.73-.19-1.43-.12-2.22-.1-.96.03-1.93.08-2.89.13-.03-6.11-.13-12.22-.43-18.31,2.21-.08,4.4-.57,6.6-.36,2.08.19,2.01-3.44,0-3.18-2.5.33-4.99.88-7.49,1.18-.78-.3-1.82.1-1.88,1.21-.51,9.32-.49,18.72-.51,28.05,0,.82.57,1.59,1.37,1.8,3.05.8,7.01,1.39,9.63-.68,1.12-.88.16-2.73-1.12-2.71Z"/>
      <path d="M97.54,148.8c-.18-2.23-3.67-2.24-3.49,0,.52,6.38,1.3,12.76,1.43,19.14-1.61-7.2-3.18-14.4-6.99-20.82-.89-1.5-3.25-.86-3.26.88-.06,10.52-.2,21.29,1.98,31.64.33,1.56,2.96,1.22,2.8-.38-.81-7.77-1.09-15.52-1.21-23.3,2.77,7.65,3.67,16,6.14,23.76.47,1.46,3.07,1.81,3.32,0,1.42-10.37.12-20.56-.71-30.91Z"/>
      <path d="M109.95,148.01c.66-.69.63-1.99-.58-2.29-1.48-.37-2.84.58-4.22,1.08-1.55.57-3.23,1.4-4.86,1.69-1.33.23-.94,2.21.31,2.26.73.03,1.5-.11,2.26-.3-.09,9.82-.24,19.82.55,29.61.12,1.54,2.26,1.54,2.39,0,.82-10.07.63-20.36.54-30.46,0-.04-.01-.08-.01-.12,1.32-.28,2.74-.47,3.66-1.42l-.04-.04Z"/>
      <path d="M119.44,161.58c-1.08-2.54-2.42-4.93-3.28-7.57-1.32-4.06.95-6.21,4.27-8.2,1.12-.67.38-2.64-.91-2.17-6.36,2.31-8.42,6.96-6.12,13.24,1.41,3.84,3.79,7.28,4.14,11.43.21,2.51-.54,5.05-1.61,7.29-.46.96-2.66,4.92-3.61,2.88-.67-1.44-2.76-.63-2.81.76-.08,2.23,1.34,4.88,4.08,3.9,3.56-1.26,5.44-4.83,6.71-8.16,1.72-4.51.95-9.13-.87-13.42Z"/>
      <path d="M268.1,442.83c-6.37-8.59-11.93-18.39-20.33-25.21-1.16-.94-3.17-.44-3.12,1.29.1,3.66.75,7.22,1.43,10.78-1.89-1.53-3.91-2.9-5.89-4.35-1.33-.98-3.15.63-2.7,2.08,3.22,10.36,7.04,20.51,9,31.21.39,2.12,3.5,1.19,3.19-.88-1.34-8.91-4.17-17.47-6.95-26.02,1.76,1.34,3.43,2.78,4.86,4.51,1.3,1.58,3.31-.19,3.06-1.78-.59-3.71-1.45-7.35-1.95-11.06,6.29,6.29,10.97,14.18,16.23,21.29,1.39,1.88,4.58.05,3.17-1.85Z"/>
      <path d="M274.63,413.5c-4.14-4.84-12.26-11.02-18.21-5.49-.88.82-.65,1.85.01,2.48.52,10.59,17.78,33.9,24.51,22.18,3.59-6.27-2.4-14.59-6.31-19.17ZM277.62,430.93c-4.88,5.99-16.3-13.17-18.46-20.5,4.26-3.37,10.24,2.74,12.87,5.67,2.44,2.71,8.75,10.96,5.59,14.83Z"/>
      <path d="M306.32,410.11c-1.91-3.37-6.4-5.93-9.24-8.49-4.69-4.24-9.54-8.73-12.97-14.09-.95-1.48-3.39-.95-3.38.91.03,3.56.01,7.13.1,10.7-2.27-.69-4.39-1.74-6.54-2.85-.61-.31-1.14-.1-1.42.3-.8-.98-3.12-.09-2.2,1.51,2.12,3.68,5.7,6.39,8.34,9.68,2.32,2.9,4.83,5.64,7.38,8.33,1.49,1.58,3.34,4.27,5.77,4.12,1.09-.07,1.57-1.07,1.16-2.02-.84-1.92-2.78-3.29-4.23-4.8-2.57-2.67-5.04-5.45-7.46-8.25-1.3-1.5-2.7-2.93-4.15-4.32,1.49.74,3.04,1.38,4.62,2.01,1.05.42,2.06-.62,2.1-1.6.09-2.41.12-4.82.13-7.23,2.76,3.42,5.93,6.54,9.11,9.52,2.96,2.78,7.03,7.77,11.14,8.81,1.31.33,2.41-1.07,1.74-2.26Z"/>
      <path d="M325.62,393.46c-7.14-7.03-15.48-13.02-21.44-21.18-1.15-1.58-4.13-.7-3.39,1.43,1.07,3.07,1.52,6.21,2.02,9.38-3.25-.45-6.65-.65-9.86-.41-.54-.32-1.09-.58-1.64-.76-1.03-.33-1.6.81-1.25,1.63,1.27,3.01,4.77,5.83,6.95,8.23,2.36,2.6,4.79,5.14,7.27,7.61,1.99,1.98,4.7,5.43,7.65,5.95,2.09.36,3.12-1.37,2.28-3.15-.29-.62-.99-.78-1.59-.61-.35-.27-.72-.52-1.06-.78-1.11-.87-2.14-1.86-3.16-2.82-2.19-2.05-4.29-4.2-6.43-6.31-1.74-1.72-3.7-4.3-5.83-6.4,2.79.54,5.54,1.15,8.37,1.74,1.43.3,2.45-.83,2.22-2.22-.26-1.51-.46-3.01-.69-4.5,5.25,5.66,11.27,10.57,16.79,15.99,1.82,1.79,4.61-1,2.8-2.79Z"/>
      <path d="M334.63,387.21c-.4-2.5-3.33-4.79-5.01-6.56-1.52-1.61-3.16-3.11-4.9-4.48,1.16-1.96,1.57-4.33.95-6.56-1.12-4-5.23-6.1-8.94-7.1-2.44-.65-3.48,3.11-1.04,3.78,1.61.44,3.1,1.03,4.46,2.02.89.64,1.47,1.61,1.7,2.35.24.77.21,1.51,0,2.34-.15.56-.42,1.09-.75,1.56-.18.14-.32.33-.42.54-.04.05-.08.1-.13.15-1.25,1.34-3.02,2-4.65,1.62-3.08-.71-4.41-4.19-5.68-6.78-.74-1.51-2.89-.4-2.59,1.09.8,3.87,3.45,7.87,7.31,9.14,2.74.9,5.7-.05,7.83-1.87,1.46,1.56,2.84,3.18,4.21,4.83,1.67,2.01,3.14,4.95,5.63,5.94,1.3.51,2.2-.94,2.02-2.03Z"/>
      <path d="M202.8,446.02c1.23-.22,1.34-1.76.67-2.55-1.95-2.31-6.37-1.71-9.09-1.73-1.1,0-2,.92-2,2-.05,9.1-.5,18.77,1.09,27.8-.74.64-.96,1.84.16,2.34,2.61,1.16,7.25,2.15,9.19-.57.69-.97-.27-2.03-1.22-2.13-1.02-.11-1.87.15-2.88.23-1.13.1-2.27,0-3.39-.17.28-1.62.48-3.27.64-4.92,2.53.77,5.64.9,7.19-1.64,1.22-2-2.01-3.88-3.13-1.83-.58,1.06-2.74.36-3.6.1-.07-.02-.13-.03-.19-.04.35-5.69.23-11.48.17-17.09,2.15.19,4.37.53,6.4.17Z"/>
      <path d="M185.05,443.75c0-1.73-2.03-2.4-3.23-1.34-1.51,1.35-3.16,2.44-4.63,3.76-1.21-2.29-2.35-4.64-2.58-7.23-.16-1.83-2.46-2.6-3.5-.95-5.07,8.07-6.55,17.67-8.23,26.89-.44,2.41,3.25,3.43,3.68,1.02,1.31-7.37,2.43-15.01,5.56-21.85.83,2.14,1.93,4.18,2.99,6.26.51,1,2.22,1.32,2.96.38.92-1.16,2.01-2.1,3.15-3-.12,8.73-.37,17.46,1.44,26.07.31,1.47,2.78,1.15,2.64-.36-.93-9.87-.3-19.76-.25-29.65Z"/>
      <path d="M153.51,433c-.71.05-1.14.73-1.11,1.34-4.82,3.61-6.5,10.87-6.97,16.52-.33,4.09.81,11.88,6.71,10.63,11.9-2.52,15.7-29.44,1.36-28.49ZM151.14,457.75c-2.89.21-1.83-8.13-1.6-9.52.68-4.21,2.27-8.13,5.24-11.21.29-.3.43-.66.47-1.03,6.97,4.05,4.33,21.14-4.1,21.76Z"/>
      <path d="M140,427.66c-1.91,3.46-2.22,8.13-2.98,11.97-.2,1.03-.4,2.06-.61,3.09-.01,0-.02-.01-.03-.02-3.14-1.18-6.9-2.07-10.3-2.46,1.77-5.35,3.81-10.57,6.75-15.5,1.35-2.27-2.17-4.31-3.52-2.06-4.53,7.48-7.42,16.41-8.47,25.08-.2,1.64,2.34,1.85,2.78.38.51-1.67,1.01-3.34,1.53-4.99,3.14,1.51,6.89,2.35,10.22,3.26.11.03.21.04.32.06-.53,2.75-1.06,5.5-1.56,8.25-.23,1.25,1.47,1.73,1.9.52,1.73-4.81,3.13-9.72,4.46-14.65,1.02-3.78,2.79-8.11,2.71-12.06-.03-1.66-2.35-2.39-3.19-.86Z"/>
      <path class="cls-2" d="M121.17,406.91c-.65-.95-2.03-1.04-2.67,0-.12.2-.77.37-1.31.49.07-1.61.21-3.21.5-4.81.3-1.65-1.27-3.05-2.85-2.19-4.37,2.38-9.06,4.17-13.63,6.13-1.88.81-7.34,2.34-8.34,4.9-.56.31-.91,1.04-.59,1.61-.12.34-.06.73.31,1.03.88.73,1.78,1.43,2.69,2.12-.07.07-.14.14-.21.23-1.96,2.83-3.81,5.91-5.16,9.08-.49,1.15.68,2.17,1.58,1.71.06.24.22.48.51.65,4.47,2.73,8.11,6.6,12.15,9.9,1.07.88,2.41.51,2.92-.77,1.13-2.87,2.08-5.8,3.03-8.73.2-.61.57-1.45.91-2.33,1.26.66,2.51,1.31,3.77,1.95,1.34.68,3.1-.14,3.07-1.76-.05-3.43-.39-6.85-.75-10.26,1.44.03,2.88,0,4.32-.01.92,0,1.8-.79,1.75-1.75-.11-2.28-.7-5.28-2.02-7.19ZM98.21,422.22c-.4.02-.73.18-.98.4.07-.14.13-.29.2-.43.36-.54.72-1.08,1.09-1.62.07.13.15.25.26.36-.35.33-.57.82-.56,1.29ZM102.73,432.15c.3.11.61.2.92.29.02,0,.04.01.05.02.03.01.06.02.09.03.15.27.31.53.44.74.11.17.25.31.4.42,0,0,0,.02,0,.02-.63-.51-1.26-1.01-1.9-1.52Z"/>
      <path d="M141.75,104.73c-.75,1.35-2.67,1.77-4.25,2.05-1.04-3.26-2.18-6.5-3.38-9.69-.02-.06-.05-.11-.08-.16,1.51-1.28,2.9-2.73,4.41-4.01,1.89-1.62,3.98-2.99,5.88-4.6,1.51-1.28-.54-3.95-2.12-2.75-3.73,2.81-8.33,6.34-10.46,10.59-.03.07-.04.13-.06.2-.45.31-.7.85-.47,1.54,1.63,4.84,3.05,9.74,4.18,14.72.98,4.3,1.21,9.79,3.13,13.73.59,1.2,2.58.91,2.86-.37.85-4.01-1.03-8.97-2.03-12.84-.36-1.41-.76-2.81-1.18-4.21.72-.05,1.44-.17,2.14-.35,1.33-.34,2.35-1.13,3.56-1.72,2.25-1.09-.82-4.45-2.12-2.11Z"/>
      <path d="M164.93,111.19c-.36-1.28-.74-2.56-1.12-3.83.07-.47-.05-.95-.38-1.29-.64-2.07-1.3-4.14-2.02-6.18-1.12-3.2-4.26-15.14-9-14.96-.29.01-.53.1-.74.24-.26-1.49-2.62-1.34-2.76.31-.76,8.78.82,17.45,1.96,26.14-.04.24-.03.51.05.8.05.19.08.37.12.55.22,1.79.42,3.58.57,5.37.2,2.39,3.8,2.47,3.78,0-.01-2.1-.17-4.02-.67-6.01-.13-.96-.27-1.91-.42-2.87.25.18.55.29.85.27,1.44-.12,2.89-.23,4.33-.36.27-.02.56-.04.86-.06.23.78.46,1.57.69,2.35.3,1.06.47,2.26.95,3.26.07.15.52.87.69,1.13.56.85,2.02.97,2.61-.04.84-1.44.03-3.4-.36-4.83ZM159.03,105.99c-1.42.23-2.9.31-4.29.7-.32.09-.59.28-.79.53-1.02-6.51-2.15-12.99-2.25-19.6.2.16.4.32.59.5.84.84,1.36,2.09,1.87,3.15,1.6,3.32,2.72,6.92,3.85,10.41.46,1.41.9,2.83,1.33,4.25-.11.02-.21.04-.32.06Z"/>
      <path d="M175.05,109.91c-1.39-9.13-6.01-19.11-7.27-28.89,1.58-.29,3.14-.65,4.62-1.08,1.82-.53,1.54-3.63-.46-3.41-4.11.46-8.44,1.58-12.4,2.75-1.5.44-1.28,3.01.38,2.83,1.57-.17,3.19-.36,4.81-.59-.87,4.24,1.71,11.43,2.5,14.6.89,3.58,1.87,7.14,2.95,10.66.48,1.57.98,4.02,2.58,4.89,1.3.71,2.5-.45,2.3-1.76Z"/>
      <path d="M194.13,91.45c-1.05-5.99-1.37-12.35-3.06-18.19-.24-.83-1.33-.59-1.42.19-.67,6.02.22,12.49.89,18.49.12,1.04.21,2.2.33,3.4-1.19-.09-2.57.83-3.57,1.25-.82.35-1.64.7-2.46,1.04-.52-1.63-1.04-3.24-1.41-4.79-.81-3.38-1.49-6.79-2.02-10.22-.19-1.23-.3-2.48-.36-3.73-.03-.58.26-2.57-.21-1.72.56-1.01-.78-2.08-1.6-1.24-3.41,3.48-.74,11.68.09,15.96.71,3.66,1.61,7.28,2.64,10.87.56,1.98.97,4.49,2.81,5.7.96.63,2.43-.19,2.35-1.35-.15-2.27-.78-4.64-1.5-7,.76-.24,1.52-.49,2.27-.74.96-.31,2.34-.51,3.33-1.08.43,2.85,1.18,5.65,2.78,7.59.92,1.1,2.91.21,2.82-1.17-.26-4.34-1.95-8.94-2.71-13.26Z"/>
      <path d="M213.16,101.96c-1.53-1.34-4.41-.73-6.71.04-.23-1.74-.54-3.47-.87-5.2,1.04.03,2.07-.12,3.05-.53,1.88-.8,2.23-2.87.98-4.38-.51-.61-1.76-.32-1.88.5-.2,1.38-1.46,1.66-2.71,1.6-1.6-7.23-3.83-14.36-5.42-21.58.47,0,.94,0,1.41-.03,1.2-.07,2.76-.15,3.73-.89,1.1-.85.81-2.62-.73-2.68-1.14-.05-2.26.52-3.39.71-1.11.19-2.24.16-3.35.31-1.21.17-1.21,2.26,0,2.43.03,0,.06,0,.09,0-.23,11.02,4.55,21.53,5.5,32.44.1,1.13,1.2,2.4,2.48,1.89,2.16-.87,6.33-.56,7.84-2.35.54-.64.71-1.68,0-2.29Z"/>
      <path d="M223.17,96.35c6.92-8.1,3.3-27.04-7.5-28.64-.17-1.27-2.27-1.61-2.48-.2-.01.08-.02.16-.03.24-.64.38-.82,1.4-.2,1.79-.54,5.87.25,11.84,1.04,17.66.48,3.55,1.05,7.1,1.65,10.63.36,2.13.33,4.59,1.79,6.29.56.65,1.82.5,2.2-.28.71-1.47.46-2.89.2-4.42,2.93.2,3.5,1.77,5.58,3.94.6.62,1.9.57,2.29-.29,1.51-3.41-1.36-5.62-4.54-6.7ZM222.57,81.46c.81,4.16.59,11.03-3.45,13.6-.36-2.12-.71-4.24-1.07-6.36-1-6.05-1.98-12.18-2.27-18.32,4.11,1.88,5.93,6.66,6.79,11.07Z"/>
      <path class="cls-2" d="M233.37,117.72c.39-2.01.13-4.17-.83-5.74-.62-1.02-2.48-.97-2.72.35-.37,2,.35,4.11-.6,6-.89,1.78-3.5,1.82-5.18,1.83-5.17.02-10.44-1.83-15.38-3.18-3.63-.99-7.62-2.35-11.44-2.05-4.51.36-9.89,4.44-12.44,8.73-4.13-4.31-9.19-5.94-14.93-3.91-4.61,1.63-7.91,5.41-11.49,8.54-3.33,2.91-6.84,5.62-10.52,8.06-1.72,1.14-3.53,2.24-5.47,2.97-1.66.62-1.65.32-2.03-1.29-.25-1.06-1.89-1.33-2.39-.31-.89,1.81-.8,4.02.68,5.07,9.76,16.83,38.53,6.95,45.51-8.53,9.11,5.61,22.21,4.79,32.01,2.29,5.26-1.34,10.62-3.76,14.29-7.87,2.46-2.75,4.16-7.32,2.93-10.96ZM144.05,143.65s-.02.05-.03.08c-.29-.21-.58-.41-.85-.64.23-.06.45-.15.67-.22.05.23.15.45.3.64-.03.05-.07.09-.09.14ZM164.57,134.32c-.23-.1-.49-.16-.76-.15.52-.35,1.04-.7,1.55-1.05.03.2.08.4.17.57-.33.2-.65.41-.97.62ZM191.58,122.96c-.42-.01-.84,0-1.25-.02.26-.21.51-.41.77-.61.1.23.26.44.49.63ZM192.19,133.28c.16.08.33.15.49.23.4.19.77.25,1.1.21.18.07.38.12.6.14.72.07,1.44.13,2.16.17,0,.08-.01.15-.01.23-1.54-.18-3.05-.48-4.5-.87.06-.03.11-.07.16-.11ZM214.62,132.82c.23-.12.41-.3.55-.5.38.03.75.05,1.11.05-.56.16-1.11.31-1.66.45Z"/>
      <path d="M38.36,192.61c-1.84-1.85-4.81-1.83-7.29-2.07-3.28-.32-6.59-.15-9.88.1-.12-2.58-.93-5.05-2.62-7.11-2.2-2.68-7.28-3.74-10.13-1.61-1.25.94-.83,2.78.79,2.91,2.57.21,4.66-.8,6.7,1.35,1.54,1.63,1.68,4.3,1.52,6.4-.18,2.41-1.34,4.83-3.02,6.54-2.41,2.45-5.83,2.12-8.91,1.54-1.16-.21-1.98,1.36-.84,1.99,7.6,4.14,15.21-1.21,16.37-9.12,2.57.19,5.15.38,7.72.65,2.84.3,6.12,1.55,8.92.98,1.15-.23,1.44-1.78.67-2.54Z"/>
      <path d="M22.17,210.5c-8.68,1.2-18.66,6.44-22.09,14.93-.51,1.27,1.46,1.99,2.14.92.16.54.62.95,1.4.92,6.11-.27,12.2-1.03,18.27-1.77,2.63-.32,5.26-.6,7.9-.82,1.87-.15,3.38.06,4.87-.93.85.7,2.2.52,2.63-.77,3.04-9.1-8.24-13.43-15.11-12.48ZM21.89,221.64c-6.05.75-12.08,1.75-18.12,2.55,3.95-4.8,10.13-7.78,16-9.32,3.06-.8,6.31-.98,9.34-.02,3.13.99,3.62,3.35,4.27,5.85-3.26-.97-8.65.58-11.49.93Z"/>
      <path d="M33.69,234.12c-2.75-2.2-6.8-1.71-10.03-1.21-7.53,1.17-19.3,5.55-22.92,12.92-.46.94.01,1.76.72,2.06-.11.85.71,1.87,1.72,1.6,5.64-1.5,11.24-2.87,16.96-4.03,2.77-.56,5.56-1.03,8.35-1.39,1.83-.23,3.93,0,5.51-1.07.48-.32.71-.83.68-1.33,1.91-2.04,1.07-5.9-1-7.56ZM20.48,241.52c-5.43,1.08-11.01,2.52-16.19,4.59,3.97-4.47,10.71-6.98,16.18-8.58,2.81-.82,5.94-1.54,8.88-1.13,2.63.36,2.29,1.73,2.3,3.41-3.52-.41-8.41,1.17-11.17,1.72Z"/>
      <path d="M33.65,258.84c-1.75-.37-3.12.32-4.84.72-.18.04-.37.07-.55.1.06-1.09-.09-2.17-.11-3.27-.01-.61-.06-1.23-.17-1.83,2.6-1.05,5.11-2.43,5.83-4.42.25-.68-.27-1.55-.96-1.7-3.34-.71-8.52,3.2-11.54,4.54-5.5,2.44-11.19,4.52-16.64,7.07-.76.35-.68,1.11-.24,1.59-.16.03-.31.05-.47.08-2.24.4-1.25,3.68.93,3.36,6.03-.88,12.2-.57,18.27-.89,3.32-.17,9.46-.02,11.34-3.28.44-.75.06-1.89-.84-2.08ZM20.44,260.44c-3.31.17-6.62.25-9.92.5,4.19-1.17,8.3-2.84,12.26-4.45.51-.21,1.11-.42,1.77-.65.05.23.12.45.18.68.34,1.19.56,2.37.75,3.58-1.68.18-3.37.26-5.03.35Z"/>
      <path d="M36.57,277.66c-4.87-7.11-14.61-6.14-21.71-3.36-3.25,1.27-6.73,3.25-8.84,6.11-1.06,1.44-2.79,4.83-1.29,6.46-.42.98-.02,2.3,1.3,2.13,6.38-.81,12.84-2.85,18.99-4.65,2.11-.62,7.68-1.49,9.76-3.85,1.4.03,2.8-1.37,1.79-2.84ZM20.9,281.47c-4.33,1.27-8.86,2.3-13.16,3.75.27-.9.5-1.84,1.12-2.61,1.76-2.19,4.44-3.64,6.98-4.71,4.47-1.87,11.58-3.25,15.76.02-.84.3-1.86.75-2.27.9-2.77,1-5.61,1.83-8.43,2.65Z"/>
      <path d="M317.31,25.07c-.93-.91-2.69-.29-2.64,1.09.17,4.5,2.62,7.94.39,12.48-1.68,3.41-5.23,5.34-8.79,6.14-3.11.7-6.83.19-9.32-1.89-3.67-3.06-3.08-8.29-2.17-12.45.24-1.09-1.4-1.93-1.89-.8-2.03,4.68-3.08,10.92.68,15.11,3.15,3.51,8.01,4.62,12.56,3.95,4.92-.72,9.34-3.33,12.01-7.57,2.7-4.28,2.99-12.36-.82-16.07Z"/>
      <g>
        <path d="M295.59,16.55c-.04-.29-.1-.46,0,0h0Z"/>
        <path d="M299.9,19.06c-.27-1.16-.37-2.52-1.35-3.33-.77-.63-1.73-.85-2.52-.14-.36.33-.45.86-.35,1.31-.03-.15-.06-.27-.08-.36.02.12.03.27.03.4-.02.5.05.97.27,1.42.46.94.75,1.94,1.05,2.94.63,2.07,1.05,4.41,2.17,6.29.59,1,2.41.65,2.3-.62-.22-2.65-.91-5.32-1.52-7.91Z"/>
      </g>
      <path d="M308.53,16.08c-2.42,3.08-4.26,6.38-2.91,10.35.35,1.03,2.09.93,1.99-.27-.25-2.93,1.27-5.69,3.46-7.55,1.8-1.52-1.12-4.35-2.54-2.54Z"/>
      <path d="M344.07,29.75c-11.41-9.61-16.92,14-18.17,20.84-.36,1.99,2.53,2.85,3.06.85.18-.69.42-1.67.72-2.82,1.13.76,2.43,1.25,3.68,1.79,1.18.51,3.04,1.05,3.91,2,.13.15.27.26.41.36-.6.91-1.22,1.81-1.84,2.71-.98,1.4-2.59,2.97-2.86,4.7-.23,1.43,1.12,2.8,2.55,1.96,1.87-1.1,3.1-3.67,4.3-5.41,2.21-3.21,4.22-6.54,5.84-10.09,2.6-5.7,3.69-12.44-1.59-16.88ZM339.77,49.4c-.17-.11-.36-.2-.59-.27-2.9-.9-5.61-2.34-8.63-2.97-.06-.01-.13-.02-.2-.02,2.13-7.65,6.16-18.64,12.37-12.33,3.88,3.93-.83,11.93-2.95,15.6Z"/>
      <path d="M363.06,50.71c.91-.21,1.4-1.62.6-2.25-1.93-1.52-3.81,1.39-4.67,2.75-2.55,4.06-4.99,8.23-8.09,11.91-.84,1-2.35,3-3.78,3.13-1.91.18-.48-6.52-.3-7.12,1.92-6.48,6.46-13.64,11.1-18.53.87-.92-.3-2.61-1.4-1.81-6.07,4.42-10.42,11.4-13.13,18.29-1.39,3.53-2.54,12.64,3.37,13.07,4.39.32,7.85-5.27,10.02-8.31,1.76-2.47,3.34-5.06,4.93-7.64.55-.9,1.21-1.79,1.64-2.75.74-1.66.7-.98-.28-.75Z"/>
      <path d="M383.11,59.08c-3.64,1.22-6.63,5.7-9.15,8.4-1.82,1.96-3.63,3.93-5.45,5.89,3.25-7.18,7.44-13.99,8.86-21.85.3-1.68-1.89-3.53-3.22-1.87-6.62,8.24-13.62,16.17-19.81,24.75-.87,1.21,1.07,2.68,2.06,1.59,4.83-5.39,9.66-10.77,14.35-16.27-3.01,7.08-7.21,13.72-9.14,21.24-.48,1.86,1.86,3.29,3.24,1.89,3.74-3.78,7.32-7.71,10.92-11.62,2.81-3.04,7.13-6.16,9.13-9.78.65-1.17-.42-2.84-1.82-2.37Z"/>
      <path d="M397.49,70.1c-2.1-1.92-4.85-4.41-7.27-6.53-1.47-1.29-3.43.67-2.14,2.14.65.75,1.34,1.52,2.04,2.3-5.97,6.76-12.37,13.28-17.55,20.68-1.03,1.47,1.29,3.24,2.47,1.9,5.84-6.61,11.99-12.93,17.82-19.55.62.68,1.21,1.33,1.76,1.93,1.78,1.94,4.82-1.1,2.88-2.88Z"/>
      <path d="M250.79,106.47c6.33-6.95,5.91-17.49,2.23-26.02-1.75-4.06-9.58-15.99-14-7.82-.19.22-.32.5-.33.83-.16,7.96.98,15.96,1.91,23.84.46,3.84.88,7.69,1.21,11.55.25,2.96-.18,6.28.63,9.14.25.88,1.3,1.38,2.14,1.18,3.5,2.13,8.59-.57,10.07-4.07,1.66-3.9-.71-6.9-3.86-8.64ZM241.49,73.76c3.45-3.94,8.49,8.61,9.12,10.6,2.27,7.14,2.24,16.22-4.31,21.09-.11.08-.2.18-.29.28-.38-2.55-.85-5-1.11-7.06-1.02-8.32-2.19-16.62-3.42-24.91ZM250.54,114.57c-1.1,1.36-2.69,1.34-4.26,1.36.42-2.17.37-4.62.12-7.09.11.06.22.12.36.16,2.47.69,6.16,2.62,3.78,5.58Z"/>
      <path d="M267.05,105.99c3.93-8.17,3-19.5,1.21-27.84-.76-3.52-2.03-7.84-5.26-9.87-2.56-1.61-4.95.17-6.32,2.32-.3.22-.52.58-.56,1.09-.01.06-.02.11-.02.16h0c-.06,14.79,4.12,29.23,3.61,44.09-.23,2.55,3.87,2.59,4,0,.12-2.26.13-4.53.07-6.8,3.9,1.02,5.13,3.74,4.72,7.6-.28,2.6,3.77,2.56,4.05,0,.53-4.83-1.45-8.83-5.51-10.74ZM259.31,71.85c-.03-.21-.09-.39-.17-.56,1.52-.76,2.57-.19,3.7,2.03,1.61,3.17,2.08,7.1,2.46,10.58.67,6.17.97,14.06-1.75,20.02-.75-10.74-2.85-21.53-4.23-32.07Z"/>
      <path d="M284.96,90.59c-.43-4-1.09-7.98-1.81-11.94-.56-3.09-.7-7.33-2.57-9.92-.43-.6-1.3-.83-1.93-.55,0-.02.02-.05.02-.07.4-1.05-1.24-1.68-1.77-.75-4.47,7.81-4.82,18.74-4.57,27.5.2,7.05,1.18,19.52,10.22,20.57.8.09,1.67-.65,1.84-1.4,1.67-7.74,1.42-15.62.58-23.45ZM275.94,90.92c-.04-6.37.09-13.8,1.88-20.18.02,2.1.74,4.23,1.15,6.28.8,4.01,1.47,8.03,2,12.08.95,7.28,1.35,14.81.09,22.07-5.46-2.67-5.09-15.9-5.11-20.26Z"/>
      <path d="M294.85,89.01c-.05-3.96-.29-7.92-.61-11.87-.23-2.82-.17-5.96-1.5-8.5-.62-1.19-2.62-.95-2.9.38-.56,2.64.16,5.45.41,8.12.38,3.94.6,7.91.79,11.87.36,7.66-.08,15.26-.2,22.92-.02,1.48,2.31,1.85,2.62.35,1.57-7.58,1.51-15.56,1.4-23.27Z"/>
      <g>
        <path d="M296.98,64.86c-.14-.1-.94-.58-1.76-.61-.99-.04-1.98-.09-2.98-.13-1.99-.1-4.16-.48-6.14-.22-1.77.24-2.26,2.56-.43,3.18,1.9.65,4.19.58,6.18.76,1.04.1,2.07.19,3.11.27.4.03.8.06,1.2-.05.32-.09.61-.25.85-.49-.05.05-.08.07-.11.1.02-.02.05-.04.07-.05,1.06-.69,1-2.06,0-2.76Z"/>
        <path d="M296.91,67.67c-.06.05-.09.08,0,0h0Z"/>
      </g>
      <path d="M312.49,93.06c-.06-4.66.06-9.33.16-13.99.05-2.66,1.24-8.71-.81-10.85-.23-.24-.63-.23-.86,0-1.92,1.92-1.35,7.15-1.53,9.61-.37,5.07-.66,10.15-.73,15.24-.04,3.35-.06,6.71-.08,10.06-.04,0-.07,0-.11,0-.71.04-1.42.07-2.12.11-.54.03-1.3,0-2,.09-.07-3.12-.15-6.24-.26-9.36-.31-8.96-.45-17.98-1.1-26.92-.12-1.63-2.42-1.63-2.54,0-.58,8.45-.31,17.01-.21,25.48.05,4.11.12,8.22.2,12.33.05,2.69-.84,7.16.86,9.4.68.9,1.76.9,2.44,0,1.55-2.05.73-5.7.67-8.14.68.08,1.4.05,1.92.08.71.04,1.42.08,2.12.11.02,0,.04,0,.05,0-.11,2.02-.32,4.48.56,6.21.04.13.1.25.18.37,0,0,0,0,0,.01,0,.01.02.02.02.03.03.04.05.07.08.1.32.4.74.56,1.16.54.42.02.84-.15,1.16-.54.03-.03.06-.07.08-.1,0-.01.02-.02.02-.03,0,0,0,0,0-.01.08-.11.14-.23.18-.35.94-1.86.53-4.54.52-6.48-.02-4.33-.04-8.66-.09-12.99Z"/>
      <path d="M326.85,111.94c-1.44-.52-3.06-.18-4.65-.19-.02-2.37-.03-4.76-.06-7.15.78.06,1.58.07,2.32.17.58.07,1.42.19,2.15-.41.34-.28.6-.81.6-1.24,0-.37-.23-.93-.53-1.18-.44-.36-.75-.5-1.32-.57-.22-.03-.83.09-.7.08-.82.1-1.7.12-2.56.19-.12-9.93-.43-19.93-1.38-29.72.03,0,.06.02.09.02.59.05,1.46.29,2.13.57,1.01.43,1.97,1.25,3.13.84.78-.28,1.45-1.12,1.13-2-.51-1.43-1.87-1.7-3.19-2.09-1.1-.33-2.48-.71-3.61-.32-.03.01-.05.03-.08.04-.48-.88-1.88-.72-2.01.48-1.52,14.51-.1,29.51-.12,44.08,0,.86.61,1.73,1.47,1.93,2.21.51,5.64,1.07,7.57-.42,1.18-.91,1.07-2.57-.4-3.1Z"/>
      <path d="M343.15,109.62c-1.12-1.43-2.56-2.34-4.14-2.84,7.9-8.61,6.2-24.79-4.33-30.87.02-.28.04-.57.07-.85.18-2.19-3.22-2.17-3.41,0-.85,9.96-1.66,19.94-1.7,29.95-.02,3.51-.77,7.77.05,11.15.23.96,1,1.34,1.76,1.29.76.05,1.52-.33,1.76-1.29.4-1.68.42-3.56.34-5.47.02,0,.03,0,.05,0,6.02-1.56,7.13,3.06,8.91,7.35.66,1.59,2.99,1.89,3.54,0,.86-2.96-1.12-6.16-2.88-8.4ZM333.28,106.28c-.02-.43-.03-.86-.03-1.27-.04-8.54.5-17.06,1.16-25.57,7.8,6.78,8.01,21.28-1.12,26.84Z"/>
      <path class="cls-2" d="M368.55,94.85c-2.01-.8-4.16-.77-6.22-.28-.33-1.94-1.35-3.8-3.04-4.75-1.93-1.08-4.32-.75-6.21.26-1.77.95-3.24,2.79-3.19,4.87.06,2.32,1.95,3.63,3.94,4.42-1.37,1.42-2.46,3.1-2.9,4.98-.94,4.02,2.42,6.7,5.93,7.58.09.02.16.02.24.01,2.07,2.63,5.77,3.48,8.98,2.74,3.8-.87,7.74-3.83,7.7-8.02,0-.62-.11-1.21-.29-1.75,1.32-3.62-1.54-8.7-4.95-10.06ZM353.28,96.37s-.46-.82-.41-.7c-.07-.16-.11-.32-.15-.49-.03-.11-.04-.15-.04-.17,0,.02.02.03,0-.06,0-.04.01-.26,0-.33.02-.12.05-.24.09-.35.1-.35,0-.03.09-.22.07-.15.16-.29.25-.42.24-.36.78-.81,1.36-1.14.42-.24.4-.21.8-.35.33-.11.77-.19.83-.2.78-.08,1.27,0,1.77.27.62.32.94.73,1.3,1.44.29.57.39,1.19.45,1.81-.62.26-1.22.56-1.8.87-.88.48-1.75,1.06-2.57,1.73-.74-.46-1.4-1-1.99-1.69ZM355.8,109.3c-1.53-1.17-2.58-2.68-1.93-4.83.75-2.5,3.31-4.38,5.45-5.62.55-.32,1.13-.6,1.73-.85.39.02.78-.11,1.04-.38,1.64-.51,3.38-.68,5.02-.23,2.04.56,2.75,2.02,3.16,3.67-1.24-.75-2.68-1.23-4.06-1.42-.64-.09-1.47.27-1.39,1.06.18,1.81.46,3.99-.35,5.7-.77,1.6-3.63-2.65-3.93-3.09-.35-.51-.91-.62-1.39-.47-.14-.22-.42-.35-.72-.2-2.58,1.35-3.31,4.1-2.62,6.65ZM365.97,111.95c-4.76,1.83-10.16-3.19-7.56-7.54.02.04.03.07.06.11,1.16,1.68,4,5.97,6.67,4.34,2.08-1.27,2.16-4.32,1.99-6.73,1.97.63,3.82,1.95,4.1,4.12.4,3.08-2.86,4.79-5.26,5.72Z"/>
      <path d="M230.77,413.52c-.47-2.51-3.89-4.04-5.87-5.04-3.23-1.63-6.62-2.95-9.67-4.91-3.59-2.31-2.55-4.28.14-6.96,1.08-1.08-.3-2.85-1.61-2.09-6.76,3.91-4.77,9.59.99,13.07,3.09,1.86,6.5,3.14,9.67,4.85,3.62,1.96,2.54,1.49.64,4.06-.96,1.3.62,2.53,1.82,2.37,2.48-.34,4.35-2.92,3.9-5.34Z"/>
      <path d="M245.02,397.52c-2.74-6.05-7.82-12.07-12.44-16.81-1.7-1.74-4.37.93-2.67,2.67,3.12,3.19,5.86,6.82,8.45,10.45,1.08,1.51,2.09,3.06,2.96,4.69-.67-.41-1.32-.89-1.91-1.27-1.33-.87-3.36.58-2.78,2.14.58,1.58.5,3.03.3,4.51-6.12-3.68-10.66-9.24-16.16-13.79-1.07-.89-2.38.44-1.51,1.51,5.17,6.43,10.67,13.24,18.22,16.93,1.35.66,2.77-.15,2.88-1.65.12-1.62.39-3.01.48-4.39,1.28.57,2.62.83,3.88.24,2.04-.96.92-3.8.28-5.21Z"/>
      <path d="M259.38,391.66c-.15-1.26-1.31-2.09-2.53-1.45-1.15.61-1.66,1.8-2.42,2.79-1.51-1.28-2.98-2.56-4.43-3.87.24-.16.42-.46.42-.77.5-.47.85-1.07,1.39-1.54.67-.59,1.68-1.24,1.58-2.39-.07-.77-.55-1.21-1.3-1.3-1.33-.15-2.3,1.14-3.01,2.07-.39.51-.69,1.05-.79,1.68-.04.26-.03.48.02.68-3.44-3.22-6.66-6.63-9.49-10.55.72-.52,1.45-1,2.25-1.41.95-.49,2.13-.65,2.68-1.65.6-1.08-.19-2.08-1.28-2.23-1.03-.14-2.06.8-2.87,1.36-1.02.71-1.98,1.52-2.76,2.5-.27.35-.31.8-.19,1.2-.09.2-.11.43,0,.7,2.92,7.75,10.36,14.25,16.44,19.57.64.56,1.65.84,2.42.31,1.66-1.13,4.16-3.47,3.88-5.73Z"/>
      <path d="M268.6,380.91c-1.61,1.26-2.1,2.15-4.18,1.05-1.08-.57-2.05-1.38-2.95-2.26.21-.39.41-.79.59-1.18.53-1.12,1.19-2.23.59-3.45-.37-.77-1.47-.65-1.88,0-.02.04-.24.33-.1.14-.21.27-.37.55-.42.89-.08.58-.24,1.15-.38,1.72-.01.05-.03.11-.04.17-.28-.31-.56-.61-.83-.9-2.89-3.1-5.36-6.56-8.19-9.7.12-.11.23-.22.33-.31.96-.92,1.86-1.5,3.03-2.11,1.47-.76.44-3.28-1.14-2.69-1.53.57-2.65,1.81-3.61,3.08-.17.22-.3.45-.43.69-1.15-.02-2.33,1.26-1.48,2.35,4.01,5.2,7.63,10.97,12.65,15.27,3.16,2.71,9.97,4.71,11.09-1.22.31-1.66-1.4-2.54-2.67-1.56Z"/>
      <path d="M277.72,375.99c-.86-2.74-3.65-5.07-5.45-7.22-3.11-3.71-6.22-7.48-9.55-10.99-1.11-1.17-3.23.4-2.26,1.74,2.77,3.82,5.69,7.55,8.6,11.26,1.81,2.31,3.77,6.12,6.63,7.23,1.18.46,2.38-.91,2.02-2.02Z"/>
      <path d="M263.61,352.96c-1.73.54-3.48.99-5.2,1.57-1.51.51-3.22,1.07-4.16,2.45-.57.83.17,2.25,1.22,2.13.13,0,.26.04.37.12.41.19.76-.15.74-.48.94-.41,1.94-.84,3.05-1.11,1.65-.41,3.32-.71,4.98-1.02,2.38-.44,1.35-4.39-1.01-3.65Z"/>
      <path d="M418.31,90.34c-5.99-5.74-16.49-7.18-23.17-1.94-1.25-.4-2.1,1.26-.96,2.09,5.7,4.11,10.4,9.69,15.55,14.45.98.9,4.8,5.09,7.48,5.51.43,1.02,1.81,1.54,2.8.94,2.84-1.75,3.61-7.5,3.56-10.49-.07-4.1-2.38-7.81-5.26-10.56ZM407.98,98.2c-3.21-2.83-6.61-6.06-10.34-8.41,5.41-2.16,10.9-1.37,16,1.74,2.63,1.6,4.63,4.13,5.62,7.03.53,1.55.53,3.25.29,4.85-.14.72-.34,1.42-.59,2.11,0,0-.44.69-.8,1.36-.04.02-.08.06-.12.09-.11-.09-.24-.21-.41-.38-.78-.76-1.73-1.39-2.56-2.1-2.41-2.05-4.73-4.2-7.09-6.29Z"/>
      <path d="M411.65,115.77c-3.22-4.64-7.38-8.34-11.85-11.74-2.85-2.17-9.09-7.69-12.9-6.02-.47.21-.79.96-.59,1.44,1.26,2.98,6.66,4.57,9.31,6.36,3.4,2.29,6.69,4.98,9.52,8.03-8.3-1.85-16.32-4.65-24.57-6.82-.65-.17-1.04.23-1.11.71-.59.45-.83,1.29-.11,1.97,4.01,3.82,8.29,7.32,12.65,10.72,3.38,2.63,7.07,6.04,11.16,7.42,1.57.53,2.43-1.49,1.5-2.57-2.74-3.16-7.05-5.29-10.46-7.71-2.96-2.1-5.86-4.27-8.72-6.5,7.78,3.17,15.69,6.1,23.98,7.53,1.49.26,3.23-1.29,2.17-2.82Z"/>
      <path d="M399.52,131.48c-8.33-4.47-16.38-9.4-24.63-14-1.41-.79-3.37.51-2.83,2.18,1.91,5.89,5.25,11.25,8.81,16.27,1.98,2.79,5.95,9.62,9.88,9.51.92-.03,1.68-.91,1.4-1.83-.41-1.37-1.43-2.08-2.44-3.05-1.13-1.09-2.16-2.27-3.14-3.5,1.84-1.87,3.76-3.66,5.62-5.5,2.03.94,4.09,1.84,6.18,2.65,1.59.62,2.61-1.94,1.15-2.72ZM384.76,134.7c-.18-.24-.36-.49-.54-.73-2.29-3.13-4.5-6.49-6.25-10.04,3.49,2.11,7.07,4.1,10.72,5.93-1.41,1.53-2.73,3.13-3.93,4.83Z"/>
      <path d="M382.67,147.57c-.92-2.8-5.39-2.62-8.46-2.43-.58-6.06-4.6-11.96-9.07-15.75-3.31-2.81-11.02-4.95-13.21-.07-.15.17-.27.37-.31.64-.01.09,0,.18-.01.27-.06.22-.11.46-.15.7-.05.33.04.61.22.8.84,4.53,6.73,9.37,9.43,12.12,3.77,3.84,8.08,9.26,12.8,11.94,1.27.72,2.68-.45,2.37-1.82-.36-1.59-1.72-2.69-2.84-3.76-.37-.36-.75-.71-1.12-1.06h0c1.86.01,6.4-.72,8.01.21,1.17.68,2.79-.44,2.34-1.8ZM366.12,143.29c-4.16-4-7.9-7.95-11.06-12.69,1.1-.63,2.2-1.08,3.81-.72,2.35.52,4.26,2.42,5.84,4.11,3.17,3.38,5.89,8.49,5.65,13.21,0,.04,0,.08,0,.12-1.42-1.34-2.84-2.67-4.25-4.02Z"/>
      <path d="M351.32,142.54c-.93-.91-2.55-.75-3.21.41-.79,1.4-.94,1.86-1.05,3.43-.15,2.17,2.55,2.48,3.61,1.06,5.24,4.5,12.85,10.13,12.62,16.91-5.91-.73-12.07-8.04-15.38-11.91-2.71-3.17-5.13-6.85-6.52-10.79-1.15-3.26-.53-5.56.62-8.63.25-.67-.54-1.48-1.21-1.21-8.81,3.39-.49,17.23,2.72,21.56,4.3,5.79,13.28,16.16,21.59,15.12.88-.11,1.79-.54,1.99-1.51,2.23-10.84-9.09-17.93-15.77-24.43Z"/>
      <path d="M448.48,131.13c-3.02-2.77-6.39-5.17-9.7-7.58-2.88-2.09-14.01-8.46-7.39-11.46,1.24-.56.29-2.23-.86-2.04-3.42.56-6.4,3.01-4.55,6.73,2.08,4.2,6.54,7.05,10.31,9.61,3.09,2.09,6.04,4.48,8.84,6.93,1.49,1.3,3,2.7,4.1,4.35.71,1.05.54.38-.39.48-1.16.11-2.06,0-3.21.31-1.24.34-1.67,2.3-.38,2.9,2.61,1.21,7.1,1.15,8.17-2.13.98-3.02-3.09-6.4-4.94-8.09Z"/>
      <path d="M443.53,145.18c-.55-1.75-2.02-2.73-3.41-3.96-2.67-2.36-5.38-4.68-8.09-7-2.74-2.35-5.48-4.72-8.22-7.07-.93-.8-1.83-1.63-2.79-2.4-.1-.08-.18-.13-.26-.2.22-.34.37-.71.38-1.16,0-.96-.81-1.77-1.77-1.77-1.43.01-2.14,1.41-2.93,2.29-.89.99-1.83,1.97-2.67,3-1.2,1.47.6,3.27,2.07,2.07.97-.79,1.87-1.65,2.8-2.49,1.81,3.26,6.39,6.51,9.27,9.09,2.77,2.46,5.53,4.93,8.32,7.37,1.66,1.45,3.34,3.51,5.42,4.11,1.1.31,2.24-.77,1.89-1.88Z"/>
      <path d="M435.35,149.88c-6.86-8.41-16.61-13.67-25.98-18.8-2.21-1.21-4.18,2.17-1.97,3.37,6.57,3.57,13.21,7.18,18.97,11.91-6.55-2.6-13.14-5.3-20.03-6.4-.36-.29-.71-.59-1.08-.87-1.29-1-2.79.49-1.78,1.78,4.29,5.5,10.08,10.39,15.32,14.95,1.32,1.15,8.82,8.38,10.19,3.77.31-1.04-.56-1.79-1.45-1.76.15-.05.03-.13-.69-.56-.88-.53-1.71-1.13-2.54-1.74-2.55-1.91-4.97-4.02-7.41-6.06-2.33-1.95-4.52-4.09-6.75-6.16,7.99,2.75,15.39,6.82,23.39,9.69,1.93.69,2.87-1.82,1.81-3.12Z"/>
      <path d="M421.83,164.83c-.08-.99-.84-1.52-1.8-1.37-1.83.29-2.85,2.32-3.65,4.17-1.8-1.16-3.66-2.29-5.51-3.41.02-.02.05-.02.07-.04.37-.34.67-.74.94-1.17.1-.17.2-.34.3-.52.05-.09.11-.17.16-.26.02-.01.03-.02.05-.03.88-.52,1.05-1.77.32-2.51-.7-.7-2.03-.6-2.51.32-.2.38-.43.75-.6,1.15-.16.38-.31.8-.57,1.12-.16.19-.26.4-.33.62-5.3-3.29-10.4-6.84-14.15-11.87-.02-.1-.07-.2-.14-.29-.14-.14-.22-.3-.28-.48.19-.43.29-.83.78-1.16,1.05-.69,2.3-.79,3.46-1.2,1.92-.68,1.14-3.35-.83-3.02-1.74.29-3.92,1.37-5.01,2.79-.47.61-.77,1.43-.59,2.19.08.35.25.65.53.87,0,.02,0,.03.01.05,4.09,9.6,15.61,15.58,23.75,21.29.81.57,2.15.19,2.59-.68.98-1.91,3.18-4.36,3-6.56Z"/>
      <path d="M412.31,177.22c-2.61-1.16-4.81-1.63-6.54-.86-2.57-10.04-16.26-17.99-25.79-14.44-.41.15-.87.46-.94.94-.01.07,0,.12-.02.19-1.94,4.07,21.94,21.66,25.79,22.37,1.13.21,2.31-.94,1.59-2.07-.28-.44-.62-.82-.99-1.17.29-.2.54-.48.67-.86,1.08-3.06,3.74-.94,5.9-1.5,1.11-.29,1.5-2.09.34-2.6ZM393.15,173.28c-2.51-1.89-4.93-3.88-7.19-6.07-.85-.82-1.85-2.04-2.9-3.05.08,0,.15,0,.23-.01,3.05-.23,6.17.82,8.89,2.09,5.36,2.5,10.72,7.66,10.48,13.92-.14-.1-.28-.19-.42-.29-3.07-2.14-6.1-4.35-9.09-6.6Z"/>
      <path d="M400.86,188.52c-.91-3.92-8.33-6.64-11.48-8.28-5.93-3.09-12.08-6.18-18.33-8.57-1.39-.53-1.99,1.49-.94,2.24,4.97,3.56,10.83,6.04,16.25,8.82,1.35.69,2.68,1.4,4,2.14-.57.6-.86,1.43-1.32,2.13-.66,1.01-1.41,1.97-2.19,2.89-1.39-1.32-2.74-2.66-4.12-3.98-4.24-4.07-8.68-8.69-13.89-11.53-.99-.54-2.08.78-1.23,1.59,4.31,4.07,8.46,8.2,12.57,12.48,3.04,3.17,7.3,8.89,11.78,9.94,1.2.28,2.62-1.11,1.76-2.29-1.15-1.55-2.76-2.53-4.21-3.79-.16-.14-.32-.29-.48-.43,1.03-1,1.94-2.11,2.8-3.26.45-.61,1.04-1.39,1.24-2.18.34.21.7.4,1.04.6,1.63.99,3.23,2.79,5.13,3.12,1,.17,1.89-.58,1.64-1.64Z"/>
      <path d="M381.63,206.55c-.59-1.24-1.54-2.4-2.67-3.51,1.28-1.84,1.55-4.9,1.24-6.71-.72-4.11-3.5-7.53-6.73-10.02-3.62-2.79-12.8-7.66-17.22-3.81-.85-.8-2.35.15-1.71,1.31.1.18.21.35.31.53-.02.04-.04.08-.06.12-.3.63.27,1.32.85,1.21,2.89,4.57,6.71,8.45,10.73,12.06,2.38,2.14,4.89,4.15,7.35,6.2,1.86,1.55,3.63,3.7,5.86,4.67,1.4.62,2.73-.63,2.06-2.06ZM369.96,196.14c-4.46-3.57-8.86-7.27-12.34-11.82,4.22-1.89,10.8,2.37,13.71,4.77,2.21,1.83,4.15,4.15,5.02,6.92.52,1.67-.08,3-.63,4.3-2.03-1.52-4.15-2.9-5.74-4.18Z"/>
      <path class="cls-2" d="M458.83,160.34c-1.21-.6-2.81.63-2.09,1.92-.55.15-.99.59-.93,1.35-.03.41-.03.81-.03,1.22h0v.13h0c0,.2,0,.4,0,.6-.61,1.15-.74,2.66-1.44,3.81-1.13,1.87-2.99,3.25-4.88,4.31-4.4.35-8.92-.86-9.49-5.63-.17-1.42-2.23-1.5-2.27,0,0,.28,0,.55.02.81-.07.03-.13.06-.19.11.09-.79.22-1.58.39-2.34.16-.74-.9-1.28-1.28-.54-2.43,4.76-2.94,10.43,1.52,14.16,4.09,3.42,10.09,3.55,15.07,2.6,4.6-.87,9.75-3.4,11.74-7.9,2.27-5.15-1.33-12.19-6.14-14.6ZM438.92,176.25c.58.61,1.28,1.07,2.07,1.43-.02.19.03.38.14.54-.94-.53-1.67-1.2-2.22-1.97ZM444.95,179.58c1.2.19,2.39.21,3.54.07.02.09.05.18.09.26-1.22.02-2.44-.09-3.63-.33ZM458.15,174.23c.05-.15.07-.3.07-.46.33-.56.65-1.14.92-1.75.1.15.21.28.34.39-.34.67-.79,1.28-1.33,1.83Z"/>
      <path class="cls-2" d="M443.23,162.26c.33-.32.6-.68.72-1.06.27-.86-.62-1.75-1.48-1.48-.48.15-.91.54-1.29.97-.56-.44-1.11-.89-1.64-1.38-.93-.86-2.28.48-1.4,1.4.54.55,1.11,1.07,1.69,1.58-.5.58-1,1.16-1.46,1.79-.09.12-.13.29-.12.46-.27.52.35,1.14.87.87.17,0,.35-.04.47-.12.67-.49,1.28-1.02,1.91-1.56.88.83,1.8,1.99,2.96,2.09.5.05,1.07-.49,1-1-.15-1.24-1.28-1.86-2.23-2.57Z"/>
      <path class="cls-2" d="M451.21,157.96c-.13-1.15-.29-2.31-.36-3.32.04-.53-.37-.77-.78-.74-.41-.03-.82.22-.78.74-.05.74-.16,1.58-.27,2.43-1.16-.42-2.34-.78-3.53-1.08-1.1-.28-1.45,1.24-.46,1.65,1.26.52,2.52,1.01,3.77,1.56,0,.07-.01.13-.02.2-.09,1.57-.74,4.25.38,5.53.44.5,1.37.5,1.8,0,.82-.94.67-2.59.52-3.99.37.32.74.64,1.17.93.71.49,1.94-.15,1.83-1.05-.21-1.74-1.88-2.22-3.28-2.87Z"/>
      <path d="M143.35,158.53c-2.37-2.26-5.74-.16-7.79,1.53-3.65,3.01-6.7,6.92-6.32,11.84.43,5.56,4.66,10.43,7.15,15.19,1.77,3.38,1.85,6.57.86,10.18-.77,2.79-2.23,6.97-5.59,4.98-.94-.56-1.99.35-1.77,1.36.9,3.97,4.62,4.28,7.34,1.74,3.28-3.06,5.07-9.78,4.37-14.12-1.08-6.6-6.08-11.42-8.23-17.6-1.27-3.65.3-6.3,2.7-8.92,1.86-2.04,3.75-4.03,5.97-2.7.18.11.43.08.58-.07.24-.26.49-.53.73-.79.68-.73.76-1.92,0-2.64Z"/>
      <path d="M151.52,195.7c-.49-3.99-.63-8.02-.74-12.04-.21-7.66.5-15.63-.75-23.21-.02.01-.04.03-.06.04-.4-1.21-2.36-1.55-2.61-.04-1.35,8-.94,16.54-.71,24.62.11,3.95.37,7.9.85,11.83.34,2.8.5,6.18,2.39,8.4,1.06,1.25,2.77.12,2.91-1.2.27-2.66-.95-5.73-1.28-8.4Z"/>
      <path d="M169.67,191.49c-3.59-7.98-18.73-25.84-5.97-32.88,1.17-.65.36-2.41-.89-2.1-8.18,2.02-8.38,10.37-6.55,17.18,1.08,4.03,2.8,8.15,5.04,11.66,1.48,2.32,3.11,4.51,4.41,6.94.77,1.43,1.17,10.24-1.64,7.65-.79-.73-2.43-.29-2.3.96.3,3,2.57,4.99,5.46,3.22,3.82-2.34,4.06-9.03,2.44-12.63Z"/>
      <path d="M185.79,190.8c-1.48-6.19-3.17-12.2-4.94-18.31-.45-1.57-2.03-10.85-4.19-14.76.73-.24,1.46-.46,2.19-.7,2.32-.76,1.38-4.12-1-3.63-2.77.56-5.8,2.11-8,3.88-.43.35-.52.98-.44,1.5-.04.14-.07.28-.07.45-.02.9.85,1.15,1.46.82,1.04.07,2.02-.65,2.96-1.15.14,1.14.57,2.35.8,3.39.77,3.61,1.54,7.22,2.42,10.8.57,2.34,1.43,4.62,2.11,6.93.96,3.23,1.27,6.67,2.26,9.86.65,2.11,1.73,5.68,2.05,8.06-.07.17-.12.36-.1.57.09.84.16,1.44.7,2.11.58.72,1.93.68,2.51,0,1.99-2.31-.1-7.27-.71-9.8Z"/>
      <path d="M205.6,191.23c-2.03.21-3.61,1.07-5.55,1.25-.32-1.59-.65-3.19-.99-4.8.8-.1,1.6-.35,2.34-.64,1.01-.4,2.28-.93,2.99-1.78,1.14-1.36-.42-3.89-2.04-2.65-.63.48-1.17,1.03-1.84,1.47-.66.43-1.34.67-2.04.89-1.53-6.84-3.34-13.67-5.61-20.19-1.1-3.14-2.31-6.24-3.35-9.4-.17-.53-.33-1.06-.5-1.59,1.83-.69,4.12-.22,5.62-1.54.56-.5.6-1.6,0-2.1-1.51-1.24-3.46-.67-5.14-.06-.44.16-.88.36-1.3.6-.7-.48-1.27-.12-1.45-.05-.57.2-.92.64-.95,1.25-.26,4.81,2.3,10.08,3.78,14.57,3.03,9.18,5.13,19.07,6.87,28.57.11.61.78,1.32,1.41,1.41,3.17.45,8.01.42,9.35-3.12.36-.95-.58-2.19-1.6-2.09Z"/>
      <path d="M218.47,182.33c3.21-7.62,1.06-18.17-1.74-25.23-1.92-4.86-9.44-14.46-14.66-8.64-.8-.31-1.85.34-1.68,1.47,2.08,14.05,8.43,27.17,11.28,41.08.52,2.54,4.71,1.42,3.9-1.07-.22-1.3-.48-2.59-.76-3.88.14.03.27.05.41.04,4.89-.3,6.76,2.3,8.93,6.05.76,1.32,2.74,1.01,3.16-.41,1.47-4.93-4.14-8.38-8.84-9.41ZM213.93,182.28c-2.72-10.74-6.99-21.24-10.64-31.63,2.13-.65,3.8-.83,5.84,1.08,2.68,2.5,3.98,6.44,5,9.84,1.81,6.02,3.22,14.9-.2,20.72Z"/>
      <path d="M53.25,237.3c-2.09-1.06-4.33-1.34-6.48-2.24,3.07-14.31,5.54-29.12,5.34-43.78-.02-1.61-2.22-1.5-2.42,0-1.97,14.88-3.9,29.68-7.13,44.35-.19.88.12,1.79.92,2.26,2.73,1.59,6.29,3.28,9.41,2.09,1.08-.41,1.58-2.05.35-2.68Z"/>
      <path d="M72.69,218.12c-.07-7.71-.86-18-5.97-24.22-1.09-1.33-2.68-.48-3.11.81,0,0-.01.02-.02.02-6.26,9.5-5.63,21.6-5.86,32.52-.09,4.4-.09,15.53,7.25,12.24,7.49-3.36,7.77-14.58,7.71-21.36ZM66.09,233.42c-.7,1.11-1.94,2.09-3.03,2.78-.91.57-1.18-2-1.27-2.52-.54-2.92-.29-6.07-.26-9.02.13-9.31-.35-18.27,3.14-26.97,3.06,4.72,3.59,11.79,4,17.07.45,5.91.71,13.45-2.58,18.66Z"/>
      <path d="M85.09,194.76c-1.95,11.92-.85,24.43-3.94,36.1-2.31-13.24-3.61-26.63-5.91-39.88-.22-1.26-2.26-.96-2.21.3.6,16.01,2.4,32.13,5.6,47.82.33,1.62,2.96,2.06,3.66.48,6.23-13.93,4.43-29.03,6.57-43.77.36-2.46-3.37-3.55-3.78-1.04Z"/>
      <path d="M108.47,194.88c-.74-1.88-2.35-1.68-4.1-1.85-2.19-.2-4.42-.08-6.61.06,0-.07,0-.14,0-.21-.07-1.23-2.05-1.65-2.26-.31-2.39,14.71-3.28,30.31-2.57,45.19.04.84.6,1.87,1.53,2.01,3.39.5,7.93.37,10.1-2.72.9-1.29-.58-3.03-2-2.6-1.98.6-3.56,1.33-5.54,1.38-.1-2.95-.09-5.91-.03-8.86.02-.02.03-.03.05-.05.66-.11,1.12-.22,1.89-.15.93.08,1.5.6,2.49.53,1.06-.08,2.11-1.32,1.35-2.35-.95-1.3-2.35-1.34-3.84-1.29-.59.02-1.26.1-1.86.3.32-9.37,1.06-18.74.8-28.08,1.76.11,3.53.21,5.28.4,1.51.16,3.26,1.27,4.64.3.51-.36.95-1.04.69-1.7Z"/>
      <path class="cls-2" d="M120.78,205.49c-.56-1.24-2.3-1.21-3.17-.41-2.02,1.86-3.96,3.13-5.62,4.97-1.18-1.76-2.69-3.35-4.73-3.79-2.62-.56-3.82,1.8-4.07,3.97-.86,7.55,7.19,13.35,12.89,16.46.86.47,1.73-.32,1.62-1.11,6.56-2.72,5.31-15.11,3.08-20.09ZM118.1,209.89c.12.46.21.94.28,1.42-.02-.01-.05-.02-.07-.04-.02-.04-.03-.07-.05-.11-.19-.34-.49-.58-.84-.73.23-.18.45-.36.68-.54ZM113.43,214.9c-.24.58-.49,1.16-.75,1.73-.18-.32-.37-.64-.56-.95.52-.07,1-.33,1.32-.77Z"/>
      <path d="M87.88,388.38c-5.62-.79-10.81,4.73-14.15,8.46-.63.7-.7,1.77,0,2.46,1.07,1.07,2.13,2.15,3.26,3.16,1.61,1.44,3.8-.75,2.36-2.36-.64-.72-1.31-1.4-1.99-2.08,2.47-2.71,5.76-5.98,9.34-6.19,1.95-.11,2.51,1.71,2.2,3.6-.5,3.09-2.72,5.63-5.28,7.27-1.9,1.21-4.05,1.87-6.25,2.26-2.54.45-7.25.27-9.14-1.8-1.17-1.27-3.47.45-2.42,1.87,2.16,2.92,6.58,3.51,9.96,3.62,2.87.09,6.04-1.04,8.56-2.31,3.92-1.98,7.29-5.82,8.02-10.23.54-3.28-.73-7.19-4.46-7.72Z"/>
      <path d="M77.71,382.91c-.35.66-1.87,1.62-2.49,2.18-.38.34-.76.67-1.14,1.01-.73-1.88-.84-3.21.23-5.02.52-.89.84-1.64.51-2.65-.44-1.34-2-1.41-2.78-.36-1.63,2.18-2.17,4.39-1.82,6.72-4.74-.36-9.96,1.02-13.57,3.91-4.75,3.8-3.69,8.61.9,11.95.31.23.64.23.92.12.22.83,1.29,1.38,2.18.64,4.19-3.49,8.48-6.84,12.77-10.2,2.03-1.6,7.19-4.4,7-7.56-.08-1.37-1.99-2.09-2.71-.74ZM59.14,399.18c-.05-.11-.12-.21-.22-.3-7.87-7.43,6.27-11.74,12.58-10.53-.63.54-1.26,1.08-1.9,1.61-3.52,2.96-7.37,5.78-10.46,9.22Z"/>
      <path d="M68.54,375.09c-.64.02-1.27.14-1.9.31-.04-.05-.07-.1-.12-.15-.85-.87-1.81-1.64-2.71-2.47-.68-.63-1.2-1.23-1.71-1.89,0-.13-.03-.26-.09-.38.82-.63,1.64-1.25,2.21-2.14.61-.96-.19-2.23-1.28-2.23-3.07,0-6.18,4.23-8.13,6.19-3.46,3.48-6.78,7.14-9.83,10.99-1.25,1.58.87,3.83,2.26,2.26,0,0,0,0,0,0,.22.1.49.13.8.05,4.26-1,8.4-2.64,12.49-4.16,2.73-1.02,6.97-1.77,8.96-4.1.72-.83.3-2.31-.94-2.27ZM60.24,378.19c-3.26,1.39-6.56,2.69-9.88,3.94,1.88-2.05,3.77-4.08,5.71-6.07,1.16-1.2,2.35-2.36,3.57-3.5.39.78,1.03,1.47,1.58,2.09.64.72,1.34,1.41,2.04,2.08-1.03.5-2.04,1.03-3.02,1.45Z"/>
      <path d="M54.51,360.53c-1.57.6-2.6,2.28-3.69,3.49-1.74,1.93-3.5,3.84-5.26,5.75-.5.55-1.01,1.1-1.51,1.65,3.43-4.86,6.05-10.41,8.44-15.71.67-1.48-.85-3.69-2.51-2.51-5.6,3.98-12.5,8.06-17.12,13.19-1.3,1.44.34,3.68,2.08,2.7,3.98-2.22,7.64-5.3,11.29-8.31-2.44,5.24-5.18,10.27-9.07,14.71-1.1,1.26.62,3.03,1.85,1.85.12-.11.23-.24.35-.35-.03.3.05.61-.08.79-.27.37.27.92.64.64.19-.14.57.01.86-.07.71-.19,1.35-.93,1.87-1.4,1.77-1.6,3.48-3.25,5.19-4.91,1.86-1.81,3.68-3.66,5.48-5.53,1.22-1.27,2.91-2.69,3.12-4.52.1-.94-1.06-1.8-1.93-1.47Z"/>
      <path d="M50.02,346.72c.31-.6.31-1.36-.27-2-8.85-9.79-32.63,2.33-23.85,14.63.51.72,1.64.59,1.99-.05-.19,1.07.87,2.25,2.1,1.54,6.57-3.77,12.63-8.3,19.41-11.72,1.06-.53,1.09-1.62.6-2.41ZM28.54,358.34c-.28.19-.46.43-.56.69.03-.16.03-.34-.04-.54-1.88-5.47.69-9.43,5.49-12.17,3.99-2.27,9.6-2.94,13.17.23-6.3,3.43-12.18,7.7-18.06,11.78Z"/>
      <path d="M41.71,332.45c-2.61-.75-6.86,2.63-9.08,3.75-.78.39-1.56.78-2.35,1.16-.4-1-.79-2-1.31-2.98-.8-1.52-1.42-3.48-2.7-4.65-.82-.75-2.56-.32-2.42,1,.2,1.76,1.29,3.17,2.2,4.65.64,1.04,1.36,2.02,2.05,3.02-.63.3-1.27.6-1.91.89-1.07.48-3.52,1.83-5.39,2.15-.85-.17-1.65-.95-2.07-1.68-.83-1.43-.53-3.07-.87-4.61-.31-1.39-2.57-1.43-2.84,0-.38,1.99.34,4.58,1.56,6.18.57.76,1.28,1.35,2.2,1.64.2.06.4.08.6.07,3.29,1.42,7.92-.83,10.83-1.99,2.6-1.04,5.12-2.29,7.65-3.49,1.51-.72,3.93-1.29,4.77-2.84.48-.88.06-1.99-.92-2.27Z"/>
      <path d="M38.09,320.03c-1.93.04-3.84.21-5.73.47-.26-.69-.49-1.38-.7-2.09-.34-1.15-.45-2.57-1.2-3.53,1.7-1.28,3.25-2.66,4.15-4.2.69-1.18-.44-2.6-1.74-2.26-3.24.84-6.4,4.43-8.96,6.44-4.1,3.2-8.19,6.42-12.41,9.46-1.34.96-1.1,3.71.95,3.5,1.42-.15,2.82-.36,4.22-.59,2.35.29,5.69-.83,7.59-1.09,4.8-.66,9.61-1.32,14.34-2.38,2.11-.47,1.62-3.76-.5-3.72ZM19.58,322.91c1.67-1.29,3.34-2.59,5-3.89,1-.78,2.21-1.59,3.47-2.44.21,1.05.74,2.09,1.11,3.05.17.43.34.85.52,1.27-3.38.58-6.74,1.34-10.11,2.01Z"/>
      <path class="cls-2" d="M26.55,302.52c-.19-.06-.39-.1-.58-.16-.2-1.24-.8-2.24-1.56-3.17.83-1.19,1.66-2.38,2.47-3.58,1.17-1.73-1.02-3.21-2.56-2.56-1.38.59-2.75,1.18-4.12,1.77-1.35-1.29-2.72-2.56-4.04-3.87-1.04-1.03-3.38-.38-3.16,1.31.24,1.83.41,3.67.57,5.5-1.77.81-3.54,1.63-5.28,2.49-1.74.86-.83,3.5.95,3.52.41,0,.82.02,1.22.03.12.04.24.09.38.1,1.09.07,2.18.16,3.27.26.13,1.38.28,2.76.46,4.13.22,1.66,2.54,2.79,3.49.95.76-1.46,1.59-2.87,2.46-4.25,1.7.29,3.38.63,5.05,1.06,2.29.59,3.24-2.87.97-3.53Z"/>
      <path d="M57.63,273.03c-.04-.94-.85-2.04-1.91-1.91-2.02.25-3.42,1.12-5.32,1.67-2.37.68-1.36,4.39,1.02,3.7.93-.27,1.73-.71,2.59-1.07.51,4.42,1.75,8.74,1.55,13.26-.15,3.35-3.51,5.98-5.78,2.67-1.43-2.09-2.09-4.75-2.7-7.18-2.04-8.07-5.5-26,3.78-30.7,1.58-.8.42-2.98-1.13-2.69-7.17,1.34-8.14,10.57-8.35,16.47-.27,7.36.87,15.41,3.38,22.35,2.16,5.95,6.85,9.77,12.31,4.82,5.4-4.9.8-15.36.57-21.38Z"/>
      <path class="cls-1" d="M60.53,254.6s.01-.02,0-.02"/>
      <path d="M68.8,283.41c4.63-5.02,5.2-12.89,4.16-19.51-.74-4.71-3.94-13.95-10.17-11.44-.1.04-.17.1-.23.18-.04-.25-.07-.51-.12-.75-.21-1.11-2.01-1.1-2.22,0-1.44,7.4-.99,15.6-.72,23.09.18,5-.35,15.29,4.26,18.61.91.66,2.4-.21,2.3-1.32-.17-2.03-.94-3.95-1.4-5.94,3.06.25,5.1,1.79,6.69,4.36.8,1.29.72,2.07,2.09,2.79.66.35,1.54.19,1.91-.5,2.19-4-2.34-7.71-6.56-9.56ZM62.93,253.54c4.46-.27,6.04,8.76,6.4,11.77.7,5.84-.06,13.33-5.34,16.83-.32-2.8-.45-5.63-.58-8.42-.31-6.61.26-13.63-.71-20.23.07.03.15.04.24.04Z"/>
      <path d="M92.2,282.86c-3.22-10.06-5.14-20.5-8.94-30.39-.76-1.99-3.84-1.81-3.85.52-.09,13.49-1.44,27.08,1.87,40.32.25.99,1.91.8,1.81-.24-.24-2.44-.39-4.88-.47-7.33.1.19.24.37.43.5,1.1.76,2.69.23,3.87-.05.66-.16,1.38-.3,2.1-.48.21.68.42,1.35.6,2.04.04.22.11.43.17.65-.34.5-.38,1.15.21,1.65.95.81,2.46,1.1,3.16-.25,1.12-2.13-.3-4.85-.96-6.94ZM85.2,283.7c-.27.08-.54.15-.82.21-.15.04-.3.07-.45.1-.29.06-.25.05.12-.04-.14-.13-.32-.15-.49-.06-.17.09-.34.18-.52.27-.21.11-.36.26-.45.44-.16-6.75.16-13.51.43-20.26,1.26,4.39,2.4,8.81,3.68,13.2.5,1.7.93,3.41,1.41,5.12-.32.12-.63.25-.95.36-.65.24-1.31.46-1.97.66Z"/>
      <path d="M105.79,248.99c-.06-2.55-4.03-2.56-3.97,0,.17,7.08,2.09,13.9,3.65,20.79-3.4-6.63-7.27-13.01-11.19-19.37-.96-1.56-3.83-1.05-3.66.99.98,11.9,3.44,24.27,7.53,35.5.32.88,1.81.82,1.73-.23-.7-8.95-2.9-17.68-4.29-26.55,4.57,7.66,8.84,15.48,11.93,23.87.74,2,3.93,1.82,3.88-.52-.23-11.75-5.33-22.77-5.6-34.47Z"/>
      <path d="M130.43,259.4c-1.62-10.15-10.08-20.51-20.58-14.24-1-.27-2.21.48-1.9,1.83,2.65,11.42,7.45,22.11,9.24,33.77.33,2.14,3.91,1.63,3.77-.51,0-.1-.02-.19-.03-.29,9.31,2.53,10.44-14.71,9.5-20.56ZM120.34,276.21s-.03-.06-.05-.08c-1.89-9.99-5.68-19.62-9.1-29.16,3.47-1.15,6.84-1.4,9.93,1.19,3.14,2.62,4.56,7,5.36,10.85,1.2,5.77,1.46,16.6-6.14,17.2Z"/>
      <path d="M150.02,254.23c-.96-4.22-5.35-8.7-7.75-12.25-3.42-5.05-7.02-10.17-11.53-14.32-1.37-1.26-3.42-.02-3.04,1.77.59,2.76.77,5.57,1.17,8.36-1.7-.24-3.38-.16-5.14-.19-.4-.28-.88-.27-1.25-.05-.34-.02-.69-.05-1.04-.1-1.29-.16-1.47,1.86-.3,2.2.4.12.8.2,1.2.27,2.46,5.24,5.49,10.24,8.22,15.34,1.9,3.56,3.64,8.05,6.64,10.83,1.12,1.04,2.85.02,2.52-1.46-.9-3.98-3.93-7.74-6.05-11.17-2.71-4.39-5.25-8.92-8.09-13.24,1.59.12,3.13.38,4.6,1.47,1.35,1,2.82-.64,2.56-1.96-.35-1.79-.54-3.6-.73-5.41,2.85,3.36,5.33,7.03,7.77,10.69,2.16,3.23,4.55,9.08,8.22,10.8,1.09.51,2.3-.32,2.02-1.55Z"/>
      <path d="M151.53,228.13c-2.93-2.17-5.94-4.23-8.92-6.33-1.61-1.14-3.84-3.7-5.95-3.49-.58.06-.98.42-1.02,1.02-.04.57.16,1.17.5,1.77,1.02,4.86,4.17,9.17,6.92,13.5,2.01,3.15,4.02,6.31,6.11,9.41,1.02,1.52,1.97,3.6,3.93,3.98.84.16,1.95-.4,1.84-1.4-.2-1.89-1.27-3.05-2.33-4.59-.08-.12-.17-.24-.25-.37,1.44-1.26,2.92-2.51,4.29-3.83,1.16,1.35,2.25,2.8,4.05,2.99.62.07,1.19-.48,1.36-1.03,1.25-4.25-7.71-9.52-10.54-11.62ZM146.85,233.48c-1.56-2.32-3.11-4.65-4.69-6.96,1.75,1.17,3.41,2.17,4.3,2.83,2.65,1.95,5.27,3.95,7.77,6.1-1.19,1.23-2.31,2.54-3.44,3.84-1.32-1.93-2.64-3.87-3.95-5.81Z"/>
      <path d="M246.18,158.53c-1.27-4.86-3.51-9.91-6.72-13.8-2.11-2.56-7.79-7.94-11.51-6.52-.73-.51-1.92-.21-1.98.97-.4,7.28,2.13,14.86,4.1,21.77,1.12,3.94,2.36,7.85,3.53,11.78.36,1.2.71,2.4,1.04,3.61.14.53,1.29,2.93.98,1.66.2.81,1.18,1.17,1.89.77.07-.04.12-.11.19-.16,3.32,1.15,7.14-2.41,8.46-5.18,2.18-4.56,1.24-10.21.02-14.89ZM243.02,169.73c-.28,1.52-.95,2.82-2.07,3.88-.66.63-1.48.85-2.3,1.1-.46-3.87-2.89-9.16-3.41-10.86-2.13-7.07-5.13-14.5-6.35-21.9,1.07-.97,4.39,2.1,5.45,2.82,1.27.87,2.25,2.29,3.1,3.53,2.15,3.14,3.58,6.75,4.65,10.37,1.04,3.54,1.62,7.4.94,11.06Z"/>
      <path d="M263.4,166.17c-.58-3.91-1.57-7.78-2.56-11.6-1.98-7.65-4.1-15.79-7.85-22.8-1.03-1.93-3.47-.78-3.7,1-1.7,13.18-2.82,27.46.6,40.46.4,1.53,3.02,1.26,2.83-.38-.19-1.69-.35-3.38-.48-5.07.07,0,.14,0,.21-.01,2.06-.29,3.91-1.33,6.05-1.08.31.04.57,0,.8-.09.22,1.86.21,3.81.98,5.48.41.9,1.96,1.13,2.58.33,1.46-1.87.86-4.02.53-6.23ZM258.01,163.04c-2.07.34-4.09.92-5.97,1.87-.49-8.19-.31-16.38.42-24.56,1.7,4.64,2.94,9.53,4.18,14.2.75,2.81,1.43,5.63,2.01,8.48-.2-.02-.41-.02-.64.01Z"/>
      <path d="M281.05,146.89c-.81-5.91-2.94-12.44-7.39-16.63-2.83-2.66-11.14-5.16-13.78-.87-.15.15-.27.34-.31.57-.01.02-.02.04-.04.06-.11.26-.08.53.06.73.74,6.97,2.82,13.87,4.43,20.67.86,3.62,1.74,7.24,2.49,10.89.53,2.56.41,5.92,1.86,8.12.54.81,1.4.92,2.08.54,3.99,2.03,7.84-1.9,9.26-5.35,2.4-5.83,2.2-12.59,1.35-18.72ZM276.75,161.34c-.78,3.49-1.84,5.71-5.17,5.72-.14-1.57-.6-3.2-.87-4.59-.7-3.59-1.6-7.14-2.51-10.68-1.78-6.91-3.54-13.94-5.66-20.77,1.11-.19,2.23-.49,3.3-.46,2.17.06,4.08,1.3,5.55,2.79,3.35,3.41,4.7,8.6,5.52,13.16.86,4.84.93,10.01-.15,14.82Z"/>
      <path d="M284.15,126.26c-.41-.04-.67.16-.78.44-.61.09-1.24.57-1.32,1.26-1.57,13.76,3.03,28,4.03,41.68.16,2.18,2.99,2.58,3.89,1.18,1.53.92,3.61-1.14,4.36-2.61,2.44-4.76,3.56-10.56,4.31-15.81,1.43-10.01-2.62-25.02-14.49-26.14ZM294.96,150.07c-.31,3.42-1.2,6.84-2.11,10.13-.41,1.48-.89,2.94-1.42,4.38-.26.72-.58,1.41-.9,2.1-.08.16-.14.29-.19.39-.1.02-.19.05-.28.09-1.02-12.95-3.53-25.93-5.33-38.78,8.03,3.58,10.98,13.35,10.24,21.69Z"/>
      <path d="M309.38,126.44c-1.53.48-1.47,2.52,0,3.03.55.19,1.03.52,1.6.69.06.02.17.11.23.15,0,.02,0,.04,0,.07,0,.06,0,.11,0,.14,0,.02-.01.04-.02.08-.05.28-.15.56-.25.83-.02.05-.33.67-.59,1.09-.27.45-.64.95-.84,1.19-.76.93-1.83,1.96-2.64,2.56-.86.63-2,1.31-2.69,1.55-.62.21-.74.2-1.07.21-.4,0-.38,0-.74-.21-.14-.08-.35-.33-.55-.68-.28-.49-.39-1.11-.49-1.68-.4-2.18-.04-4.53.14-6.71.12-1.47-2.12-1.68-2.51-.34-1.07,3.71-2.17,9.91,1.54,12.61,1.49,1.08,3.34,1.03,5.08.48.38,4.04.71,8.08.98,12.12.24,3.76-.52,8.56,1.01,12.03.48,1.08,2.41,1.1,2.89,0,1.49-3.5.36-8.33.04-12.03-.39-4.53-.99-9.07-2.06-13.49.25-.16.48-.32.71-.48,2.6-1.91,5.14-4.62,6-7.81,1.01-3.74-2.14-6.56-5.74-5.42Z"/>
      <path class="cls-2" d="M329.85,138.24c-.49-1.07-2.18-1.21-2.93-.38-1.43,1.58-3.55,4.42-4.23,7.11-.87-.99-1.93-1.68-3.59-1.91-.99-.14-1.88.23-2.2,1.25-2.35,7.46,4.24,11.33,9.61,14.88.81.54,2.06.19,2.51-.66,3.31-6.23,3.78-13.85.83-20.3ZM327.79,143.93c-.12-.02-.24-.04-.36-.04-.08,0-.16,0-.24.02.14-.28.28-.55.44-.82.07.28.11.56.16.84ZM320.78,147.2c-.3.13-.54.36-.67.67-.04-.34-.07-.68-.05-1.04.26.1.49.23.71.38ZM321.5,150.92c.13.08.29.1.43.06.16.24.31.45.42.61.21.28.42.54.63.82-.56-.47-1.06-.96-1.49-1.49Z"/>
      <path class="cls-2" d="M205.47,209.11c-1.92-5.86-8.73-9.96-14.03-5.6-3.98,3.28-6.71,8.62-7.89,13.94-6.14-6.64-17.75-9.55-20.87.35-1.74,5.52,3.56,11.57,6.81,15.35,4.31,5,9.6,9.02,13.96,13.96.67.76,1.95.69,2.64,0,5.15-5.16,9.91-10.74,13.94-16.83,3.96-5.99,7.84-13.86,5.45-21.16ZM169.73,222.43c-.16-.38-.3-.78-.42-1.19.3.23.6.47.9.7-.18.13-.35.3-.47.49ZM181.01,234.57c.41.13.86.08,1.26-.1.11.24.29.45.5.62-.63-.01-1.22-.17-1.76-.52ZM184.81,243.08c-.29-.31-.59-.61-.88-.91.63.04,1.28-.02,1.92-.16-.35.36-.7.72-1.04,1.07ZM192.82,207.34c.4-.44.8-.78,1.19-1.07-.34.5-.66,1-.99,1.51-.04.06-.05.11-.07.17-.35.16-.71.31-1.05.49.3-.38.6-.76.92-1.11ZM187.14,218.7s.01,0,.02,0c.05.36.23.68.49.93-.35.83-.68,1.67-.97,2.49.06-1.13.22-2.28.46-3.42Z"/>
      <path d="M218.43,204.56c2.65-.06,2.66-4.11,0-4.12-2.08,0-4.43.22-6.42,1.01-.96-1.43-3.5-.93-3.51,1.04-.02,6.2.97,12.44.95,18.69-.03,7.18-.86,14.25-1.59,21.38-.21,2.03,2.94,2.33,3.46.47.86-3.04,1.37-6.19,1.69-9.37,1.1.05,2.21-.11,3.26-.39,1.19-.33,2.57-.78,2.87-2.15.25-1.1-.5-2.12-1.64-2.15-.96-.03-1.56.55-2.35.94-.57.28-1.23.52-1.87.65.18-2.64.26-5.28.32-7.88.13-5.62.46-12.14-.64-17.89,1.81.08,3.7-.2,5.49-.24Z"/>
      <path d="M244.83,233.83c-.96-4.53-2.63-8.93-4.36-13.21-3.11-7.67-6.97-17.13-13.81-22.27-1.31-.98-2.97.38-3.04,1.74-.71,13.91.55,27.81,1.48,41.68.11,1.72,2.58,1.73,2.68,0,.11-1.96.16-3.93.19-5.89,1.83,0,3.66-.03,5.49-.07,2.13-.04,5.12.55,6.79-1.07.19-.18.29-.42.35-.68.44,2.16.46,4.48,1.19,6.51.38,1.06,1.71,1.55,2.57.68,1.92-1.93.97-5.06.47-7.42ZM233.47,232.22c-1.83.18-3.65.41-5.46.67-.02-9.44-.68-18.87-.5-28.31,4.14,4.77,6.8,11.77,9.01,17.14,1.48,3.62,2.76,7.33,3.78,11.11-.02-.02-.02-.04-.03-.05-1.75-1.64-4.65-.76-6.79-.55Z"/>
      <path d="M263.96,231.75s-.02-.04-.03-.06c-.11-1.15-.38-2.65-.39-2.72-.31-1.68-.56-3.38-.81-5.07-.6-3.97-1.05-7.96-1.6-11.95-1.03-7.47-2.31-14.85-4.61-22.04-.61-1.9-3.52-2.09-4.04,0-.71,2.9-1.96,5.6-3.02,8.37-2.47-1.92-4.85-3.9-7.11-6.09-1.45-1.4-4.17-.02-3.49,2.04,2.52,7.71,4.41,15.64,6.2,23.55.85,3.76,1.67,7.52,2.45,11.3.48,2.34.52,5.24,2.32,6.94.45.42,1.16.34,1.49-.19,1.13-1.85.5-3.83.19-5.89-.61-4.02-1.4-8.02-2.24-12.01-1.27-5.99-2.64-11.99-4.29-17.9,1.46,1.18,2.95,2.33,4.46,3.46,1.12.84,2.72-.07,3.07-1.25.48-1.61,1.1-3.16,1.72-4.71,2.82,12.41,3.06,25.25,6.34,37.56.18.67.73,1.23,1.4,1.41.11.03.21.06.32.08,1.17.3,2.56-.59,2.48-1.89-.06-1.06-.48-1.95-.81-2.94Z"/>
      <path d="M275.23,223.66c-1.1-3.9-1.92-7.88-2.75-11.84-1.6-7.62-2.62-15.83-5.83-22.98-.8-1.77-3.44-.48-3.02,1.27,1.91,7.99,3.49,16.01,5.12,24.06.79,3.91,1.65,7.8,2.75,11.64.72,2.52,1.45,6.26,3.84,7.71,1.1.66,2.32-.21,2.4-1.38.19-2.67-1.77-5.91-2.5-8.49Z"/>
      <path d="M290.17,223.51c-1.89.51-3.49,1.65-5.26,2.55-1.36-6.92-2.6-13.87-3.95-20.8-.75-3.86-1.49-7.73-2.37-11.56-.42-1.85-1.27-2.78-1.98-4.3-.25-.54-.99-.21-1.03.28-.13,1.58-.6,2.68-.36,4.48.5,3.72,1.1,7.43,1.73,11.13,1.37,8.09,2.8,16.17,4.38,24.22.22,1.11,1.54,1.76,2.58,1.46,2.94-.85,8.27-2.21,8.14-6.03-.03-.96-.92-1.69-1.88-1.43Z"/>
      <path d="M297.41,207.55c-.62-1.91-1.74-7.16-3.66-9.87.02-.01.04-.02.06-.04,3.25-2.06,4.6-6.02,3.4-9.65-.73-2.23-2.5-5.02-4.56-6.23-1.77-1.04-3.79.98-2.75,2.75.67,1.13,1.86,1.95,2.6,3.07.32.49.63,1.12.77,1.5.1.27.17.56.24.84.11.48.05.19.07.47.07.91-.13,1.59-.43,2.15-.71,1.34-2.05,2.24-3.8,2.61-1.28.27-2.7-.07-3.76-1.3-.45-.52-.83-1.71-1.02-2.71-.3-1.64-.05-3.48.21-5.1.29-1.84-2.27-2.64-2.84-.78-1.3,4.19-1.51,9.62,2.42,12.5,1.76,1.29,4,1.59,6.11,1.19.16.54.38,1.08.56,1.62.89,2.66,1.7,5.34,2.52,8.03.87,2.86,1.68,5.75,2.49,8.63.56,2,.76,4.08,2.17,5.66.82.92,2.48.45,2.77-.73,1-4.22-2.26-10.62-3.57-14.62Z"/>
      <path class="cls-2" d="M77.24,312.43c-1.96-1.84-4.92,1.11-2.96,2.96.08.08.16.16.24.23.1.4.23.78.37,1.16.02.06.04.11.06.17.3.77.65,1.5,1.03,2.22,1.89,5.03-.16,9.31-6.1,10.73-6.05,1.45-11.45-1.73-14.77-6.54.04-.11.08-.22.11-.33.35-1.08-1.17-2-1.94-1.13-4.01,4.56-5.45,12.19-.55,16.62,4.54,4.11,11.66,4.23,17.33,3.25,5.75-1,12.22-4.12,14.67-9.74,3.24-7.44-2.34-14.74-7.51-19.6ZM61.52,337.92c.27-.03.55-.06.83-.1.63.15,1.27.27,1.92.35-.93-.01-1.85-.1-2.75-.25ZM80.96,330.33c-.52,1.19-1.29,2.2-2.21,3.06,1-1.08,1.82-2.33,2.34-3.73.2-.53.34-1.11.46-1.71-.06.79-.24,1.58-.58,2.37Z"/>
      <path class="cls-2" d="M62.01,319.11c-.24-.58-.26-1.25-.58-1.79-.59-1.01-1.44-1.92-2.12-2.88-1.51-2.14-3.14-4.2-5.32-5.7-1.26-.86-2.74,1.08-1.63,2.11,1.76,1.61,3.02,3.72,4.22,5.77.95,1.63,1.44,3.26,3.17,4.23,1.06.59,2.82-.41,2.26-1.74Z"/>
      <path class="cls-2" d="M66.2,313.15c-.93-2.87-1.92-5.9-3.89-8.23-1.04-1.23-2.94.35-2.17,1.67,1.33,2.31,2.03,4.93,2.58,7.52.39,1.83.17,3.93,1.89,5.06.58.38,1.27.18,1.76-.23,1.69-1.41.38-4.12-.16-5.79Z"/>
      <path d="M102.6,322.32c1.35-1.22-.1-3.12-1.64-2.82-.9.17-1.67.77-2.45,1.23-.32.19-.64.38-.96.57-.25-.87-.5-1.73-.75-2.6-1.44-4.98-2.62-10.1-4.24-15.05.66-.14,1.33-.27,2-.39,1.32-.24,2.73,0,3.78-.95.87-.79.52-2.1-.35-2.7-1.17-.8-2.69-.14-3.93.19-.87.23-1.73.51-2.56.83-.69-1.58-2.95-.91-2.66.83.02.15.06.3.09.45-.36.54-.16,1.27.32,1.73,1.08,5.82,2.5,11.61,4,17.33.89,3.41,2.05,11.88,5.8,13.48,1.08.46,2.2-.07,2.28-1.31.13-1.97-1.12-3.82-1.78-5.63-.39-1.06-.74-2.14-1.08-3.22.44-.18.89-.36,1.33-.55.98-.41,2.02-.72,2.81-1.44Z"/>
      <path d="M118.34,321.28c6.68-10.14-1.67-28.1-14.93-25.7-1.35.24-1.38,1.87-.57,2.64-.4.14-.39.77.05.92-.46-.16,1.42,4.55,1.67,5.27,1.17,3.41,2.18,6.87,3.19,10.33.99,3.38,1.93,6.79,3,10.15.6,1.89,1,4.37,3.01,5.15.94.37,1.9-.4,2.19-1.24.35-1.05-.07-2.48-.61-3.85,1.53.25,2.94.77,4.36,1.47.26.13,2.3.73,1.22.23,0-.03,0-.05.01-.08,1.01.55,2.46.09,2.42-1.32-.06-2.18-2.54-3.35-5.02-3.97ZM110.68,310.68c-.98-3.09-2.1-6.16-3.48-9.1-.67-1.43-1.18-2.33-1.99-2.84,9.36,1.34,15.46,14.47,8.47,21.64-1-3.24-1.98-6.48-3-9.71Z"/>
      <path d="M133.85,322.18c-.11-.64-.28-1.18-.49-1.67-1.54-5.04-3.7-9.91-5.7-14.76-.28-.67-4.83-10.5-5.22-10.08.24-.26-.13-.63-.38-.38-.33.32-.08,1.17-.31,1.63-.85,1.7,1.03,5.32,1.57,6.92,2.16,6.46,4.89,12.83,6.57,19.44.66,2.61,4.42,1.47,3.96-1.09Z"/>
      <path d="M124.84,290.47c-.88-.88-2.14-.98-3.36-1.06.08-.65.11-1.31.04-1.95-.1-.9-1.54-1.3-1.73-.23-.12.66-.31,1.33-.54,1.99-1.14-.11-2.28-.22-3.42-.36-1.01-.13-1.37,1.45-.51,1.89.93.47,1.92.75,2.93.99-.34.71-.88,1.38-.65,2.21.14.52.55,1.04,1.09,1.19,1.72.47,2.03-1.5,2.24-2.68,0-.02,0-.03,0-.05,1.09.32,2.22.63,3.28.43,1.06-.2,1.32-1.65.62-2.35Z"/>
      <path d="M147.87,311.69c-1.61,1.01-3.03,2.32-4.5,3.56-.6-1.75-1.27-3.48-1.98-5.18.12-.06.25-.12.36-.18,1.3-.63,3.18-1.7,2.6-3.42-.18-.56-.71-1.07-1.34-1.02-1.27.09-1.9,1.07-2.83,1.79-3.61-8.15-7.86-16.05-9.6-24.89-.01-.06-.04-.1-.06-.15,1.1-.04,2.2-.16,3.3-.32,1.3-.18,3.62-.23,4.22-1.64.4-.94.12-1.96-.93-2.3-1.22-.38-2.5.59-3.64.97-1.54.5-3.18.85-4.79,1.02-1.36.14-1.44,1.93-.2,2.21-.09.15-.15.32-.15.52-.11,13.11,8.48,24.36,11.96,36.62.35,1.23,1.93,2.02,3.07,1.25,2.43-1.65,6.44-3.8,6.94-6.98.21-1.32-1.06-2.69-2.4-1.85Z"/>
      <path d="M164.11,283.97c-1.74-3.56-3.72-7-5.6-10.48-1.79-3.31-3.1-6.99-5.1-10.16-1.09-1.73-3.52-.57-3.17,1.34,1.11,6.06,5.49,11.99,8.39,17.34,2.77,5.11,5.3,10.36,6.55,15.98-6.83-7.99-13.63-15.94-19.48-24.74-.43-.65-1.14-.65-1.61-.33-.16-.22-.31-.44-.48-.65-1.15-1.49-3.56-.24-2.6,1.52,3.26,5.98,6.32,11.96,9.09,18.18,1.57,3.52,2.97,7.11,4.28,10.74.82,2.26,1.18,4.92,2.8,6.74.78.87,2.53.47,2.74-.72.87-4.91-3.32-11.77-5.22-16.19-.44-1.03-.9-2.08-1.37-3.12,4.21,5.58,8.8,10.91,13.23,16.26,1.12,1.35,3.41.23,3.37-1.4-.18-7.26-2.64-13.86-5.8-20.31Z"/>
      <path d="M161.14,254.02c-.66.1-.98.61-1.02,1.17-.49.22-.83.7-.56,1.33,3.27,7.77,6.86,15.42,10.27,23.12,1.68,3.79,3.4,7.55,5.16,11.3,1.11,2.36,1.99,5.11,4.18,6.67.51.37,1.16.26,1.65-.08.5.02.99-.15,1.38-.61,11.91-13.87-1.53-45.95-21.06-42.9ZM180.29,292.37c-.43-.85-.9-1.69-1.32-2.53-1.78-3.63-3.45-7.31-5.19-10.95-3.53-7.39-6.93-15.08-11.27-22.06,14.97.09,24.37,23.1,17.78,35.55Z"/>
      <path d="M200.81,281.1c-1.04-3.47-2.94-6.7-4.66-9.86-3.6-6.59-5.85-11.96-2.15-19.14.71-1.37-1.11-2.97-2.22-1.71-6.74,7.56-2.95,15.73,1.27,23.52,1.57,2.9,3.15,5.8,4.1,8.98,1.6,5.38-3.04,4.25-6.78,4.38-2.1.07-2.36,2.85-.48,3.54,7.66,2.8,13.19-2.11,10.92-9.7Z"/>
      <path d="M106,337.64c-11.44,4.92-20.22,13.89-30.99,19.86-1.46.81-.43,3.4,1.15,2.74,9-3.75,16.52-10.9,24.86-15.88,4.28-2.55,9.07-4.98,14.14-5.15,2.78-.09,7.69,1.55,6.66,5.1-.86,2.98-3.88,5.45-6.08,7.43-3.41,3.07-7.24,5.67-11.08,8.17-4.18,2.72-8.49,5.3-12.9,7.68-1.07-1.43-2.66-2.61-3.84-3.91-1.7-1.87-3.09-4-4.78-5.87-1.06-1.17-2.96.34-2.16,1.67,1.31,2.15,2.92,4.13,4.38,6.18.85,1.19,1.78,2.67,2.95,3.74-.26.13-.52.28-.78.41-2.4,1.21-.29,4.8,2.1,3.6,7.26-3.64,14.29-7.83,20.95-12.46,5.53-3.85,15.43-10.18,15.2-17.98-.29-9.48-14.32-7.68-19.79-5.33Z"/>
      <path d="M143.17,361.53c-.59-2.02-3.22-1.41-3.44.47-.17,1.41-1.85,3.87-2.66,5.26-2.04,3.49-4.47,6.77-7.02,9.91-4.64,5.7-10.81,12.81-18.3,14.53-3.25.75-5.92-1.52-7.02-4.45-1.63-4.37,2.45-9.65,4.99-12.79,5.98-7.39,14.24-14.32,22.69-18.71,1.12-.58.33-2.31-.84-2-10.57,2.77-20.67,12.12-26.94,20.69-2.89,3.95-5.16,8.96-3.84,13.91.97,3.66,4.38,6.86,8.1,7.46,9.03,1.45,17.73-8.35,22.93-14.36,3.26-3.77,6.23-7.82,8.8-12.09,1.29-2.15,3.32-5.15,2.55-7.8Z"/>
      <path d="M159.66,381.52c-3.11,8.44-7.67,16.05-12.31,23.67,2.23-10.87,6-21.53,4.94-32.77-.15-1.58-2.12-2.81-3.39-1.4-7.6,8.44-17.87,18.23-20.11,29.85-.38,1.95,2.26,2.66,2.95.81,3.48-9.33,10.1-16.96,16.74-24.3-.27,12.68-5.6,24.86-6.62,37.52-.17,2.1,2.81,2.67,3.79,1.03,3.63-6.1,7.5-12.06,11.06-18.2,2.72-4.7,6.21-10.16,6.75-15.69.23-2.31-3.1-2.42-3.8-.51Z"/>
      <path d="M185.41,392.41c-.99-1.98-3.63-2.74-5.56-3.55-.2-.08-.41-.17-.61-.25-.34-.91-1.54-1.39-2.43-.97-1.46-.56-2.95-1.09-4.44-1.53-1.72-.51-2.86,2.1-1.23,2.92,1.05.52,2.12.98,3.21,1.43-.39.72-.74,1.48-1.12,2.17-1.64,3.04-3.24,6.1-4.88,9.14-1.71,3.17-3.46,6.31-5.36,9.36-1.43,2.29-3.35,4.29-4.71,6.59-.86,1.45.79,2.77,2.15,2.14,4.67-2.15,7.91-9.67,10.29-13.85,1.77-3.1,3.43-6.27,5.12-9.42.74-1.37,1.79-2.84,2.55-4.36,1.66.93,3.36,2.38,5.14,2.63,1.45.21,2.59-1.04,1.89-2.45Z"/>
      <path class="cls-2" d="M195.46,409.78c-2.98.84-5.95,1.66-8.92,2.51-.81-1.61-1.64-3.2-2.52-4.78-.67-1.19-2.68-1.31-3.31,0-1.19,2.47-2.31,4.99-3.27,7.56-2.56.84-5.11,1.73-7.62,2.71-2.05.8-1.82,3.82.53,3.91,1.67.06,3.3.32,4.89.68-.33,1.49-.6,3.01-.77,4.54-.1.93.71,1.45,1.51,1.45.47.24,1.06.28,1.64.02,1.83-.82,3.56-2.16,5.23-3.57,2.32.86,4.63,1.73,7.02,2.38,1.81.49,2.85-1.38,2.21-2.87-.74-1.72-1.49-3.43-2.26-5.13,2.57-1.98,5.12-3.99,7.58-6.11,1.55-1.33-.1-3.83-1.93-3.32ZM182.43,412.72c.12.23.24.45.36.67-.26.08-.52.16-.78.24.14-.31.29-.61.43-.91Z"/>
      <path d="M406.24,231.63c-1.01-8.72-2.22-17.98-5.27-26.26-.82-2.23-4.35-1.34-3.61,1,2.13,6.73,3.1,13.97,4.14,20.94.43,2.89.78,5.79,1.02,8.7-1.1-.4-2.53-.03-3.63.04-.8.05-1.91-.03-2.84.13-.08-2.66-.36-5.22-.47-7.09-.43-7.38-1.37-14.89-2.56-22.19-.28-1.73-2.96-1.25-2.97.4-.07,6.79.91,13.67,1.39,20.44.24,3.4.33,6.81.21,10.22-.09,2.58-1.15,5.29-.94,7.82.11,1.38,1.75,2.27,2.82,1.17,1.69-1.73,2.32-4.57,2.49-7.61.94.17,2.07.08,2.87.14,1.17.08,2.74.49,3.85-.06,0,.02,0,.04,0,.05.07,1.46.11,2.99-.08,4.45-.06.43-.77,2.51-.09,1.66-.61.75-.52,2.14.62,2.36,6.12,1.22,3.34-13.7,3.04-16.32Z"/>
      <path d="M425.84,207.59c-1.69-5.06-4.32-14.16-9.8-16.29-1.46-.57-2.42,1.26-1.85,2.41,2.11,4.27,4.94,7.85,6.72,12.41,1.88,4.82,3.77,10.26,3.96,15.47.09,2.54-.79,21.18-5.2,17.46-6.91-5.82-6.83-17.33-7.39-25.51-.23-3.35-.36-6.64-.12-9.98.13-1.8.11-3.61.18-5.42.09-2.21-.44-3.54,1.62-2.73.12.05.2-.09.18-.18-.44-3.02-3.32-3.62-4.4-.5-1.48,4.24-1.74,9.45-1.7,13.92.09,11.02.05,26.07,9.28,33.85,9.16,7.71,11.41-11.67,11.66-16.49.34-6.46-1.1-12.31-3.14-18.42Z"/>
      <path d="M451.26,235.61c-3.53-14.47-4.74-29.47-4.8-44.33,0-2.17-2.61-2.52-3.75-1.01-1.98,2.62-4.02,5.21-5.77,7.98-3.47-4.1-7.03-8.07-11.12-11.58-1.77-1.52-4.09.35-3.14,2.42,4.07,8.87,5.92,18.6,7.46,28.18.72,4.49,1.28,9.01,1.91,13.52.31,2.23.07,6.36,2.51,7.46.24.11.46.09.66-.08,1.98-1.73.74-5.63.5-7.87-.49-4.7-1.08-9.39-1.77-14.07-1.02-6.88-2.36-13.77-4.47-20.41,2.19,2.37,4.27,4.83,6.35,7.31.82.98,2.58.66,3.15-.41,1.04-1.93,2.25-3.74,3.53-5.52.25,13.23,1.31,26.82,4.76,39.52.7,2.58,4.63,1.49,4-1.1Z"/>
      <path d="M472.6,231.43c-1.76-.94-3.88-.57-5.82-.57-2.22,0-4.45,0-6.67.01-.1-2.77-.32-5.53-.6-8.28.09.11.19.2.32.28,1.54.96,3.74.88,5.48.77,1.65-.1,3.91-.07,4.69-1.83.59-1.33-.32-2.79-1.82-2.55.07,0,.02-.01-.17,0-.44,0-.86.18-1.25.37-.62.3-1.23.48-1.9.62-1.47.31-2.88.2-4.36.18-.55,0-.94.3-1.13.71-1.09-9.73-2.96-19.42-3.82-29.16,4.33-.26,8.64-.1,12.97-.29,2.59-.11,2.59-3.9,0-4.02-4.62-.2-9.54.23-14.03,1.33-.16.04-.3.11-.43.19-.57-.06-1.13.2-1.24.94-2.3,14.14,3.04,28.66,3.2,42.83.01,1.14.94,2.08,2.09,2.09,2.9,0,5.8,0,8.7.01,1.94,0,4.07.37,5.82-.57,1.15-.62,1.15-2.44,0-3.06Z"/>
      <path d="M169.85,355.67c-1.35-7.29-9.76-11.62-15.39-15.34-.7-.47-1.71-.28-2.29.3-.81.79-1.61,1.6-2.39,2.42-1.68,1.73.91,4.32,2.64,2.64.45-.43.89-.88,1.33-1.31,3.6,2.34,7.18,4.66,10.18,7.78,1.9,1.98,3.62,5.91.81,8.05-1.74,1.33-5.25-1.5-6.59-2.45-3.4-2.42-6.42-5.65-9.52-8.45-5.63-5.09-10.3-12.44-4.69-19.31.99-1.22-.51-2.74-1.72-1.72-7.33,6.13-4.41,14.29.88,20.72,2.57,3.12,5.92,5.67,8.87,8.42,2.51,2.35,5.27,4.6,8.45,5.98,5.23,2.27,10.5-1.92,9.43-7.72Z"/>
      <path d="M183.95,343.82c-2.18-1.31-5.61-.9-8.49-.35-1.5-10.98-14.4-27.75-25.26-18.43-.94.81-.19,1.89.76,2.07,2.36,11.06,13.67,18.34,21.56,25.45.04.04.07.08.11.12.47.5,1.26.69,1.91.51,0,0,.01,0,.02,0,1.48-.42,1.85-2.2.87-3.29-.58-.65-1.17-1.27-1.78-1.88.15,0,.3-.02.44-.05,3-.65,7.21.17,9.86-1.44,1.01-.61,1.01-2.09,0-2.7ZM152.97,326.59c9.92-2.9,18.88,10.33,18.51,19.33-6.66-6.1-14.2-10.84-18.51-19.33Z"/>
      <path d="M200.02,333.5c-.54-2.17-3.04-3.65-4.67-5.01-2.56-2.14-5.25-4.12-7.97-6.06-5.27-3.76-11.81-8.53-18.3-9.74-.65-.12-1.2.24-1.46.73-.99.25-1.68,1.43-.69,2.32,4.95,4.5,8.52,10.2,12.23,15.71,2.27,3.38,5.66,10.26,10,11.28,1.41.33,2.5-1.11,1.83-2.38-.89-1.7-2.52-2.98-3.74-4.45-.12-.14-.23-.3-.35-.44.93-.48,1.84-1.01,2.73-1.59.98-.65,2.26-1.37,3.01-2.36,1.58,1.38,3.26,3.61,5.32,4.07,1.26.28,2.39-.79,2.07-2.08ZM188.24,331.27c-.92.79-1.94,1.47-2.97,2.12-1.5-1.99-2.92-4.04-4.39-6.05-2.31-3.14-4.63-6.38-7.28-9.29,3.7,2.1,7.31,4.3,10.81,6.9,1.95,1.45,3.85,2.96,5.73,4.49-.66.54-1.24,1.26-1.89,1.82Z"/>
      <path d="M212.36,325.93c-.81-6.02-4.02-11.39-7.33-16.38-1.85-2.78-6.09-10.71-9.85-10.82-.84-.02-1.55.72-1.55,1.55,0,1.65,1.17,2.5,2.2,3.67,1.82,2.09,3.46,4.32,5.05,6.58,2.09,2.97,4.26,6.22,5.79,9.68-6.93-5.7-14.17-11.06-21.13-16.71-.53-.43-1.12-.34-1.49,0-.02-.02-.03-.04-.05-.06-.76-.89-2.41.05-1.99,1.16,2.28,6.07,7.45,11.88,11.48,16.85,2.3,2.83,4.65,5.64,7.13,8.31,1.05,1.13,2.44,2.75,4.18,2.59,1.59-.14,2.24-2.11.82-3.02-.12-.08-2.36-2.69-3.12-3.52-2.37-2.59-4.61-5.32-6.83-8.04-1.33-1.62-2.64-3.27-3.96-4.91,5.62,4.99,11.78,9.48,17.32,14.44,1.11.99,3.57.46,3.32-1.38Z"/>
      <path d="M204.8,292.57c-.96-.09-1.58.39-1.85,1.06-.56.16-1.04.68-.82,1.33,3.69,11.09,11.75,19.56,18.53,28.8.97,1.32,2.57,1.29,3.54,0,10.85-14.33-4.76-29.82-19.4-31.19ZM205.6,296.87c10.74,1.44,21.71,11.74,16.63,22.24-5.72-7.3-12.09-14.15-16.63-22.24Z"/>
      <path d="M201.2,385.38c-.92-.36-1.83-.77-2.73-1.2,1.25-1.16,1.87-3.07,1.6-4.96-.62-4.35-4.17-8.09-7.37-10.81-6.97-5.93-18.95-9.07-22.6,1.79-.3.56-.25,1.33.41,1.69,6.24,3.42,12.03,7.62,18.17,11.23,2.3,1.35,10.38,7.76,13.19,4.82.85-.89.38-2.13-.67-2.55ZM172.93,370.18c4.2-5.93,11.06-3.52,16.32.6,2.45,1.92,4.6,4.29,6.06,7.04,1.21,2.3.51,2.9-.89,4.28-7.04-3.91-13.97-8.95-21.49-11.92Z"/>
      <path d="M219.21,372.78c-1.67-4.42-9.24-7.86-13.06-10.14-5.36-3.2-11.86-6.54-18.18-7.04-.27-.02-.48.12-.62.32-.68.36-1.12,1.21-.62,1.98,2.79,4.3,6.33,8.08,9.89,11.75,3.16,3.26,6.63,6.83,10.64,9.05,2.31,1.28,4.23-2.08,2.05-3.51-.68-.44-1.33-.91-1.99-1.39.58-.6,1.28-1.13,1.9-1.63.6-.48,1.36-.9,1.91-1.46.22.16.44.32.65.48,1.67,1.23,3.3,3.2,5.4,3.61,1.11.22,2.51-.75,2.03-2.02ZM207.17,370.12c-.67.65-1.36,1.35-1.91,2.13-5.06-3.97-9.6-8.7-13.92-13.46,4.45,2.11,8.7,4.4,12.91,7.11,1.44.93,2.85,1.9,4.25,2.9-.43.45-.89.88-1.33,1.32Z"/>
      <path d="M229.74,362.88c-1.66-.93-3.67-1.48-5.68-1.81,4.24-11.52-11.85-24.38-21.64-15.08-.3.29-.38.61-.32.91-.53.35-.82,1.04-.44,1.72,2.2,3.92,6.58,7.18,9.77,10.29,3.36,3.27,7.07,7.83,11.22,10.09,2.07,1.13,3.76-1.4,2.39-3.1-.04-.04-.08-.08-.11-.13,1.48.39,2.96.68,4.38.33,1.48-.36,1.73-2.48.42-3.22ZM214.2,356.13c-3.08-2.75-6.2-6.43-9.77-8.7,4.38-1.77,8.6-1.21,12.44,1.78,3.82,2.97,5,7.42,2.81,11.48-1.87-1.55-3.78-3.05-5.48-4.57Z"/>
      <path d="M243.06,356.38c-.42-.88-1.89-1.09-2.52-.33-1.37,1.66-.7,2.24-2.95,1.08-1.48-.77-2.85-1.78-4.16-2.88.24-.3.48-.6.7-.9.73-.99,1.34-2.03.66-3.24-.52-.94-1.71-.76-2.27,0,.24-.32.02-.06-.05,0-.29.26-.44.58-.54.95-.1.35-.23.61-.42.99-.06.11-.12.22-.18.33-.4-.37-.8-.74-1.2-1.11-4.35-4.02-8.07-8.56-12.11-12.85.42-.26.84-.54,1.26-.8.98-.62,2.15-.98,3.06-1.68,1-.76.81-2.61-.69-2.56-2.43.08-4.29,2.27-6.3,3.39-1.27.71-.6,2.35.54,2.52,3,7.18,10.23,14.27,16.15,19.02,2.14,1.72,4.95,3.88,7.87,3.67,2.79-.2,4.34-3.15,3.16-5.59Z"/>
      <path d="M252.4,347.85c-1.16-5.04-3.93-9.53-6.84-13.74-2.61-3.79-5.66-8.62-9.35-11.4-1.63-1.23-3.32,1.06-2.57,2.57,1.77,3.54,5.23,6.64,7.57,9.82,1.5,2.03,2.98,4.15,4.27,6.38-5.68-4.44-11.83-8.36-17.64-12.55-.18-.13-.37-.19-.54-.2-1.33-1.04-2.99.87-1.89,2.25,3.66,4.6,7.11,9.33,10.52,14.11,2.29,3.2,4.64,8.32,8.15,10.26,1.26.7,2.63-.44,2.33-1.79-.91-4.11-5.49-8.36-8.02-11.67-.64-.84-1.29-1.67-1.95-2.51,4.33,3.32,8.75,6.56,12.64,10.38,1.45,1.43,3.75-.02,3.31-1.93Z"/>
      <path d="M252.44,327.9c-2.05-2.94-4.16-5.99-6.69-8.55-.61-.62-1.33-1.37-2.24-1.36,1.69-.59,3.45-1.03,5.05-1.58,1.78-.61,1.62-3.68-.47-3.48-4.21.41-9.18,3.15-11.27,6.89-.53.96.76,2.01,1.54,1.19.99-1.05,2.2-1.8,3.51-2.38-.04.27.06.56.33.67,0,.31.02.62.2.89.59.88,1.24,1.71,1.86,2.57,1.68,2.32,3.25,4.72,4.8,7.12,1.58,2.43,3.14,4.86,4.63,7.33.49.82.97,1.64,1.44,2.47.22.39.52.73.81,1.06.14.15.21.24.26.31.39.79,1.41,1.26,2.34.76,3.69-1.99-4.96-12.26-6.11-13.9Z"/>
      <path d="M272.98,329.63c-2.08-3.02-4.73-5.67-7.3-8.26-1.54-1.55-3.21-2.88-4.93-4.22-2.98-2.32-5.95-4.59-1.51-7.6,1.58-1.07.23-3.29-1.47-2.52-3.17,1.44-5.51,3.34-4.94,7.05.52,3.41,5.19,6.07,7.58,8,2.61,2.11,4.91,4.78,7.1,7.3,1.08,1.24,2.06,2.54,2.88,3.97-.08-.02-.18-.04-.28-.05-1.35-.21-1.83-.3-3.18.03-1.09.27-1.38,1.66-.64,2.43,1.69,1.76,5.72,2.85,7.74.83,2.07-2.07.27-5.07-1.04-6.98Z"/>
      <path d="M344.38,171.57c-1.31-7.67-9.8-7.9-15.69-6.13-8.84,2.66-16.22,8.56-24.41,12.58-1.45.71-.41,3.22,1.1,2.62,6.11-2.43,11.85-5.76,17.75-8.66.4-.2.8-.39,1.21-.58.18.93.98,1.85,1.51,2.46.82.95,1.75,1.85,2.65,2.74,1.76,1.73,4.45-.96,2.7-2.7-.85-.84-1.83-1.56-2.71-2.38-.25-.23-.49-.46-.72-.7.05-.27,0-.57-.14-.84,2.02-.77,4.1-1.38,6.22-1.63,3.93-.45,5.42,1.57,7.29,4.58,1.11,1.8,3.58.56,3.25-1.37Z"/>
      <path d="M344.4,180.65c-.59-.81-1.29-1.06-2.27-.92-12.43,1.77-24.58,5.57-35.5,11.84-1.46.84-.45,3.46,1.17,2.78,3.73-1.55,7.46-3.04,11.23-4.4-.05.17-.09.35-.1.53-.27,4.17-4.48,9.03-8.3,10.69-1.47.64-.65,2.88.78,2.88,5.18,0,9.51-5.41,11.09-10.41,5.61,2.56,12.72,3.16,18.5,1.99,8.4-1.7,7.45-9.34,3.4-14.97ZM343.22,190.11c-1.39,1.69-4.44,1.8-6.42,1.88-4.74.2-10.36-.7-14.49-3.2,6.33-2.16,12.78-3.92,19.45-4.97,1.31,1.86,2.91,4.53,1.46,6.29Z"/>
      <path d="M347.09,196.96c-2.11-.33-3.53.98-5.31,1.99-2.74,1.55-5.56,2.95-8.41,4.28-6.4,2.99-12.72,5.6-19.75,6.6-.71.1-.64,1.21,0,1.36,6.15,1.52,13.28-1.01,18.95-3.21,3.23-1.25,6.34-2.82,9.41-4.42,2.13-1.11,5.44-2.19,6.22-4.65.24-.76-.27-1.82-1.11-1.95Z"/>
      <path d="M353.63,194.46c-.06,0-.13,0-.19,0,.11-.56.15-1.1-.05-1.57h0c.09-1.09-1.18-1.31-1.86-.77-.75.3-1.04,1.07-1.39,1.86-.07.16-.13.33-.2.49-.71-.02-1.43-.11-2.15-.35-1.33-.45-2.11,1.54-.94,2.23.65.38,1.34.62,2.05.79-.18.8-.06,1.81.54,2.41.75.74,2.03.52,2.44-.41,0-.01.01-.02.02-.03.22-.28.37-.49.51-.85.07-.17.1-.36.15-.54.37.02.73.04,1.07,0,2.1-.16,2.09-3.08,0-3.25Z"/>
      <path d="M345.39,205.86c-5.2,1.72-10.27,3.83-15.24,6.12-2.97,1.37-8.74,3.2-10.43,6.26-.46.84.11,2.02,1.13,1.97.19,0,.39-.05.59-.08.81,1.14,1.78,2.15,2.78,3.14,1.16,1.15,2.67,2.84,4.45,2.46,1.15-.25,1.39-1.52.99-2.44-.48-1.13-2.25-1.63-3.24-2.26-.81-.51-1.56-1.11-2.27-1.77,1.65-.75,3.29-1.78,4.72-2.41.84-.37,1.68-.73,2.52-1.1-.13.38.03.86.39,1.12.14.26.38.45.63.63.48.33.97.63,1.44.96,1.24.89,1.94,2.27,3.12,3.16,1.26.94,2.96-.61,2.55-1.96-.52-1.75-2.6-3.02-4.13-3.84-.61-.33-1.27-.63-1.95-.77-.1-.02-.2-.03-.3-.04,2.86-1.22,5.74-2.39,8.64-3.49,4.09-1.55,8.26-2.92,12.53-3.88,2.52-.57,5.28-1.21,7.56.27,1.13.73,2.35-.26,2.47-1.41.7-7.41-16.36-1.5-18.94-.65Z"/>
      <path d="M369.23,223.46c-6.72,6.39-16.28,9.78-25.71,12.12,9.61-5.47,19.61-10.39,27.07-18.78,1.36-1.53.07-4.03-2.03-3.48-8.46,2.22-16.73,5.91-24.75,9.34-.85.36-15.93,6.54-12.7,8.46.32.19.69.06.89-.23-.42.6-.06.67.99.39,1.21-.33,2.41-1.02,3.57-1.48,3.85-1.52,7.69-3.08,11.55-4.6,4.15-1.64,8.34-3.39,12.58-4.96-9.11,7-20.14,11.43-29.5,18.14-1.93,1.38-.78,4.31,1.61,3.82,13.32-2.7,29.22-6.08,39.4-15.76,1.97-1.87-1.01-4.83-2.97-2.97Z"/>
      <path d="M379.95,232.4c-.32-1.04-1.48-1.85-2.58-1.46-12.92,4.53-24.72,15.08-38.72,16.15-1.15.09-1.59,1.96-.29,2.15.52.08,1.04.13,1.55.17-.09.41-.02.87.28,1.36,4.39,7.09,18.81,2.48,24.6.27,7.36-2.81,18.05-9.18,15.16-18.63ZM362.81,247.34c-4.62,1.77-12.97,4.47-18.11,1.98,11.11-1.23,21.23-9.23,31.51-13.47-.31,5.86-8.74,9.7-13.4,11.48Z"/>
      <path d="M384.83,252.24c-5.34-7.52-14.61-.01-19.55,3.95-3.94,3.16-7.71,6.65-12.21,9.03-5.02,2.66-7.21-.09-9.58-4.36-1.05-1.88-4.05-.6-3.46,1.46,1.09,3.77,3.98,7.59,8.15,7.99,4.06.4,7.83-2,10.98-4.25,4.19-2.99,7.93-6.55,12.07-9.6,3.23-2.39,7.55-5.43,11.24-2.4,1.22,1,3.41-.32,2.35-1.81Z"/>
      <path class="cls-2" d="M222.75,277.68c-2.38.98-4.58,2.04-6.95,2.39-3.21-.29-6.06-1.76-7.86-5.18-2.21-4.2-1.69-10.02.57-14.08,2.6-4.69,10.19-4.57,11.65,1.18.21.83.16,1.7-.06,2.55-.04-.03-.07-.06-.11-.09,0-.08,0-.16,0-.26,0-.93-.68-1.45-1.41-1.51,0-.03,0-.06,0-.09-.1-1.04-.73-1.63-1.75-1.75-5.2-.63-10.07,3.64-9.46,9.01.7,6.17,8.26,6.76,12.81,4.75,5.09-2.25,5.53-9.01,4.4-13.63-1.45-5.96-6.42-10.45-12.56-10.74-11.89-.57-15.72,12.08-12.71,21.54,2.7,8.49,10.82,13.71,18.8,11.99,1.83-.06,3.72-.37,5.62-.92,1.26-.37,1.54-1.6,1.16-2.55.7-1.23-.67-3.23-2.14-2.63ZM215.5,264.57c-.61.04-1.18.15-1.71.32,1.05-.61,1.52-.66,1.71-.32ZM209.91,253.99c.47-.07.94-.1,1.41-.08-.59.15-1.13.37-1.66.62.14-.17.22-.36.25-.55Z"/>
      <path d="M247.05,288.93c-.35-4.32-.39-8.66-.45-12.99-.12-8.38-.11-16.77-1.41-25.07-.3-1.93-3.48-1.87-3.82,0-.61,3.27-1.57,6.43-2.42,9.64-1.99-2.07-3.64-4.39-5.18-6.9-1.08-1.77-3.54-.92-3.7,1-1.38,16.85,2.42,33.67,2.96,50.49.06,1.88,2.67,1.8,2.86,0,1.55-14.85-2.15-29.61-2.1-44.47,1.43,1.82,3.01,3.51,4.88,4.99,1.08.86,2.96.72,3.31-.87.12-.54.25-1.08.38-1.62.19,4.77.16,9.56.22,14.32.05,4.28.16,8.56.52,12.83.25,2.96.28,6.72,2.04,9.21.95,1.35,2.73.76,2.93-.79.4-3.12-.75-6.6-1-9.75Z"/>
      <path d="M264.56,273.04c-.41-5.04-1.37-10.04-2.64-14.93-.91-3.49-1.93-8.55-4.57-11.18-.68-.68-1.92-.59-2.58.04-.51-.07-1.08.09-1.4.54-4.88,6.72-4.77,18.72-4.54,26.57.21,7.4,1.09,19.25,8.64,23.18.75.39,1.93.42,2.52-.33,5.17-6.68,5.24-15.84,4.59-23.9ZM257.99,292.58c-4.98-4.39-5.06-14.93-5.23-20.61-.21-6.96-.06-14.47,2.17-21.18.67,2.11,1.69,4.19,2.32,6.26,1.35,4.41,2.27,8.97,2.87,13.54.87,6.72,1.57,15.78-2.12,21.99Z"/>
      <path d="M276.36,290.14c-.08-1.19-.14-2.38-.2-3.57-.14-2.68-.29-5.35-.38-8.03-.17-5.01-1.73-10.19-2.9-15.04-1.35-5.62-2.45-11.26-3.41-16.95.23-.06.46-.12.68-.21,1.32-.56,1.01-2.45,0-3.1-1.36-.87-3.35-.07-4.72.43-1.67.61-3.51,1.38-4.76,2.68-.97,1-.02,2.95,1.42,2.45,1.45-.51,2.82-1.19,4.3-1.64.23-.07.47-.12.71-.16.47,11.01,4.37,21.64,4.63,32.61.07,3.09.2,6.18.38,9.27.09,1.6-.07,3.7,1.37,4.76,1.28.93,2.88-.35,2.94-1.69.01-.21,0-.42-.02-.64.32.44.04.01-.04-1.15Z"/>
      <path d="M293.8,274.82c-1.75-11.75-6.5-22.75-7.72-34.65-.15-1.44-2.18-1.48-2.27,0-.33,5.44.55,10.8,1.72,16.1,1.15,5.18,3.42,10.59,3.84,15.88.08,1.05.22,2.11.36,3.16-.21-.17-.48-.29-.78-.31-1.18-.09-1.76.85-2.68,1.4-.53.32-1.13.55-1.74.73-.49-2.83-1.05-5.66-1.47-8.41-1.28-8.36-2.61-16.95-5.46-24.95-.65-1.84-3.44-1.12-2.95.81,2.08,8.29,3.31,16.75,4.55,25.2.9,6.1.78,13.69,3.57,19.28.73,1.45,2.96.72,2.96-.8,0-2.82-.34-5.7-.78-8.58.69-.1,1.37-.27,2.05-.51,1.11-.4,2.51-.96,3.01-2.05.11.71.22,1.42.32,2.14.2,1.42.38,2.83.53,4.26.04.34.05.68.08,1.02-.08.17-.14.34-.15.52-.06.9.09,1.83.76,2.48.45.44,1.23.72,1.85.49,3.8-1.42.83-10.45.42-13.21Z"/>
      <path d="M305.9,276.65c-1.85,1.31-3.15,2.58-5.04,3.41-.52-2.36-1.03-4.72-1.53-7.08.48-.14.93-.35,1.38-.59.89-.48,1.77-.97,2.18-1.93.52-1.22-.53-2.26-1.74-1.74-.91.39-1.49,1.33-2.3,1.97-2.14-10.08-4.23-20.18-6.68-30.17.71-.43,1.48-.73,2.29-.94,1.11-.29,2.1-.19,3.14-.77.77-.43.82-1.7,0-2.12-2.06-1.04-4.76,0-6.66,1.47-.77-.2-1.74.23-1.65,1.2.02.23.05.46.07.68-.01.15,0,.29.04.42,1.41,14.37,4.96,28.64,8.06,42.71.24,1.11,1.44,1.62,2.46,1.4,3.56-.77,7.95-2.54,8.06-6.74.02-.99-1.22-1.81-2.08-1.2Z"/>
      <path d="M322.72,266c7.56-11.59-2.67-36.92-17.36-33.71,0,0,0,0,0-.01-.79-1.2-3.06-.44-2.45,1.03,5.51,13.29,9.53,26.76,11.77,40.95.18,1.13,1.97,1.61,2.68.71,1.09-1.39,1.39-3.33,1.26-5.46,0,0,0,0,.01,0,4.06-.22,8.66,2.22,8.83,6.73.05,1.25,1.78,2.28,2.71,1.12,3.99-4.96-2.12-9.65-7.44-11.36ZM317.9,265.27c-.81-3.32-2.08-6.58-2.71-8.7-2.08-6.99-4.47-14.86-8.12-21.44,11.37,1.24,19.12,22.15,10.83,30.14Z"/>
      <path class="cls-2" d="M301.66,298.81c-1.18-1.22-3.74-.38-3.56,1.47.54,5.34,1.49,11.78-1.33,16.64-1.92,3.31-6.8,2.96-9.65,1.35-4.46-2.51-5.31-8.61-4.96-13.19.18-2.42-3.16-2.51-3.89-.52-.76-.28-1.73-.03-1.94.93-1.22,5.72-.84,12.23,4.03,16.17,4.01,3.25,9.56,3.3,14.29,1.85,4.75-1.46,9.35-4.91,11.21-9.62,2.22-5.59-.26-11-4.2-15.09Z"/>
      <path class="cls-2" d="M293.7,295.02c-.39-.27-1.08-.27-1.47,0-.18.12-.32.26-.45.39-.14-.03-.27-.04-.42-.04-.9-.01-1.79.55-1.77,1.71,0,.34-.01.67-.02,1.01-.07.18-.11.38-.11.59,0,1.23.01,2.45.02,3.67-.07-.15-.14-.31-.2-.46-.59-1.29-1.18-2.74-2.15-3.79-.82-.88-2.19-.65-2.89.16-.76,0-1.52.87-1.12,1.82.01.02.02.05.03.08-.04.35,0,.72.17,1.08.72,1.54.9,3.24,1.67,4.77.55,1.26,2.21,1.04,3,.19.37.11.77.07,1.15-.21.49-.37.73-.8.82-1.26.36.38.88.58,1.41.57.21,0,.41-.03.61-.09,1.12.65,2.91-.27,2.92-1.72,0-1.48,0-2.96.01-4.44,0-1.61.25-3.01-1.19-4.03Z"/>
      <path d="M321.42,445.75c-3.26-3.33-9.99-6.55-12.64-1.21-.75.76-1.35,1.6-1.78,2.49-1.43,1.79-1.82,4.1-1.99,6.53-.22.05-.44.11-.67.17,0,0-.02,0-.02,0-6.81-.91-13.62,1.48-13.02,9.63.37,5.11,5.42,5.71,9.52,4.71.06,0,.12,0,.18-.02,1.93-.27,3.36-.97,4.43-1.95,3.22-1.93,5.1-4.39,5.8-7.84,1.06-.05,2.09-.18,3.07-.43,5.84-.52,12.66-6.4,7.11-12.08ZM303.88,461.93c-.08.2-.2.37-.31.54-1.22.79-2.62,1.44-4.03,1.75-.42,0-.84-.03-1.24-.1-1.49-.26,1.42-3.3,1.77-3.66,1.05-1.07,2.28-1.94,3.6-2.65.36.04.72.08,1.08.12-.13,1.42-.36,2.79-.87,4.01ZM314.24,453.64c-.42.06-.84.08-1.23.05-.27-.02-.51.02-.72.09-.24-.08-.49-.14-.73-.2-.02-1.79-.04-3.69.36-5.43,2.16-1.02,5.13-1,5.3,1.63.11,1.81-1.28,3.09-2.96,3.86Z"/>
      <path d="M328.07,312.52c-1.08-.54-1.99-.09-2.92.33-.38-2.52-1.56-5.19-2.21-7.24-1.61-5.07-3.38-10.07-4.74-15.21.7-.06,1.41-.14,2.08-.3.63-.15,1.15-.7,1.31-1.31.15-.55.04-.95-.19-1.45-.28-.61-1.01-.9-1.62-.93-1.39-.08-2.94.43-4.29.73-1.29.29-2.77.52-3.94,1.18-1.29.72-.72,2.79.75,2.77.86-.02,1.74-.17,2.61-.32.87,4.92,2.36,9.7,3.76,14.49.75,2.57,1.07,6.37,2.16,9.29-1.61,1.06-.7,3.89,1.45,3.34.24-.06.51-.12.79-.19.45.11.96,0,1.31-.31,2.09-.52,4.46-1.35,4.62-3.25.05-.61-.38-1.34-.92-1.61Z"/>
      <path class="cls-2" d="M367.51,284.83c-.36-5.61-5.18-9.71-10.8-8.7-5.19.93-8.44,4.79-9.73,9.43-3.76-4.2-9.67-8-13.08-2.08-2.02,3.52-1.7,8.14-.5,11.9,1.78,5.58,7.18,9.27,8.78,14.87.48,1.69,2.79.94,2.55-.7-.02-.14-.06-.28-.08-.43,3.49.93,9.76-4.41,11.5-5.76,5.99-4.66,11.87-10.41,11.36-18.52ZM340.71,291.84c.3.53.55,1.1.74,1.68.02.44.05.87.11,1.29-.78-1.23-1.24-2.36-.85-2.97ZM339.43,285.4c-.21-.12-.42-.24-.64-.35-.2-.1-.42-.16-.63-.19.42-.19.95-.26,1.61-.16-.17.2-.28.44-.34.7ZM342.41,303.41c-.07-.07-.15-.13-.22-.21-.35-.58-.71-1.15-1.08-1.72-.23-.52-.44-1.11-.62-1.74.19.25.39.48.58.71.14.8.41,1.55.9,2.3.13.2.29.37.46.5,0,.05-.01.1-.02.15ZM357.09,280c.68-.17,1.29-.23,1.86-.19-.09.1-.17.19-.23.31-.01.02-.02.04-.03.05-.15.07-.29.17-.42.31-.37-.31-.86-.46-1.34-.44.06-.02.11-.04.17-.05ZM356.16,280.29c-.12.08-.25.16-.36.27-.06.06-.11.12-.16.18-1.73.47-3.25,2.19-4.46,4.39.92-2.18,2.54-3.96,4.98-4.85ZM348.48,292.54c-.09.43-.17.85-.24,1.26-.11-.05-.22-.07-.33-.1-.07-.41-.16-.81-.27-1.2.27.08.55.09.83.05ZM354.81,299.1c-1.83,1.58-3.79,2.99-5.84,4.28-.53.33-1.08.64-1.65.93,3.94-2.37,7.67-5.1,10.61-8.63.29.05.59.03.85-.08-1.34,1.29-2.76,2.46-3.97,3.51ZM363.41,288.21c-.39,2.48-2,4.71-3.91,6.67.25-.36.48-.74.69-1.14,1.1-.92,1.98-2.18,2.72-4.18.11-.31.1-.67,0-1.02.5-1.56.57-3.24.22-4.96.45,1.46.53,3.13.3,4.63Z"/>
      <path d="M388.19,281.62c-2.96-5.75-6.62-11.66-8.38-17.92-.57-2.05-4.1-1.71-3.82.52.41,3.32-.34,6.4-1.06,9.57-1.81-.58-3.62-1.13-5.39-1.8-.28-.42-.56-.83-.85-1.24-.64-.92-1.71-.76-2.23-.12-.02-.01-.04-.02-.07-.03-.94-.49-2.06.78-1.18,1.52.55.46,1.12.87,1.71,1.25,4.51,9.42,9.43,18.5,8.91,29.32-.12,2.69,4.06,2.68,4.18,0,.4-9.45-2.98-18.41-7.76-26.45,1.05.51,2.1,1.04,3.11,1.63,1.03.6,2.49.06,2.78-1.13.33-1.37.68-2.71.98-4.04,1.17,2.46,2.45,4.87,3.64,7.25,1.32,2.65,2.65,5.29,3.98,7.93.54,1.08,1.06,2.16,1.56,3.25.17.37.84,1.9.87,1.13-.08,1.73,2.07,1.92,2.93.79,2.02-2.64-2.81-9.29-3.92-11.44Z"/>
      <path d="M398.11,280.58c-2.02-3.95-4.02-7.92-6.09-11.85,1.17-1.43,1.84-3.23,1.88-5.11.05-2.7-1.97-6.85-5.13-6.36-.55.09-1.1.79-1.03,1.35.17,1.29.88,1.81,1.56,2.8.45.66.72,1.49.75,2.02.09,1.43-.51,2.56-1.59,3.59-.73.7-1.79.98-2.53.6-1.9-.98-2.47-4.16-2.86-6.11-.27-1.32-2.33-1-2.31.31.05,3.18.75,6.71,3.49,8.67,1.7,1.21,3.95,1.01,5.69.02,1.39,3.9,3.02,7.75,4.63,11.56,1.04,2.48,1.88,5.9,4.26,7.45,1.02.67,2.09-.24,2.2-1.27.28-2.61-1.8-5.48-2.92-7.68Z"/>
      <path d="M411.46,270.22c-.2-.79-1.1-1.32-1.88-1.07-1.06.33-1.42,1.43-2.33,2.04-.07.05-.15.09-.22.13,0-.01,0-.02-.01-.03-1.59-5.15-3.11-10.33-4.32-15.59.57-.07,1.15-.07,1.64.04,1.18.25,1.98,1.19,3.24,1.24.79.03,1.68-.75,1.58-1.58-.25-2.15-2.38-3.09-4.34-3.26-1.06-.1-2.13.04-3.1.5-1.06.5-1.58,1.33-2.24,2.25-.36.49-.11,1.04.32,1.32.28,5.09,1.75,10.16,3.06,15.05.97,3.61,1.68,8.95,4.32,11.79.95,1.02,3.04.29,2.9-1.2-.26-2.6-1.18-5.16-2.08-7.67,1.94-.84,3.93-2.16,3.46-3.95Z"/>
      <path d="M425.92,263.15c-2.02-5.16-5.57-11.58-11.93-11.43-1.05.03-2.17.92-2.07,2.07.89,10.05,2.39,20.21,4.71,30.03.36,1.53,2.94,1.23,2.78-.38-.27-2.78-.59-5.55-.92-8.33.98.09,2.14-.31,3.02-.47,1-.18,2.12-.25,3.03-.69.38,1.92.82,3.82,1.62,5.53.68,1.46,2.6.8,3.07-.4,1.67-4.3-1.78-12.01-3.32-15.94ZM422.07,271.34c-.88.31-1.77.58-2.64.92-.37.14-.81.36-1.2.63-.67-5.5-1.38-10.99-1.92-16.5,3.8,1.79,5.73,7.98,6.84,11.4.32.97.56,1.97.77,2.99-.64.07-1.18.34-1.85.57Z"/>
      <path d="M447.65,274.88c1.28.85.06-2.88-.11-3.92-.55-3.3-.94-6.62-1.38-9.94-.69-5.17-1-10.89-2.92-15.79-.85-2.17-3.85-1.84-4.05.55-.19,2.22-1.01,4.3-1.83,6.38-1.74-2.1-3.47-4.19-4.82-6.57-.96-1.71-3.72-.96-3.68,1,.17,10.69,2.03,21.41,3.01,32.06.16,1.76,2.62,1.78,2.75,0,.59-8.44-.83-16.9-1.49-25.36,1.06,1.31,2.14,2.6,3.17,3.94,1.04,1.35,3.15,1.34,3.71-.48.34-1.11.74-2.19,1.15-3.26.72,4.22.99,8.61,1.52,12.68.32,2.42.15,11.07,3.78,11.6,1.72.25,2.77-1.83,1.21-2.87Z"/>
      <path d="M454.28,264.47c-.65-6.06-1.08-12.41-2.76-18.29-.55-1.93-3.18-1.07-2.92.8.86,6.17,1.38,12.38,1.83,18.59.26,3.63-.35,8.97,1.48,12.26.55.98,2.17,1.05,2.7,0,1.79-3.54.06-9.63-.34-13.36Z"/>
      <path d="M462.83,272.55c-1-.43-1.72-.41-2.51-.27-2.2-8.15-2.89-16.45-2.55-24.91.06-1.43-2.34-1.8-2.54-.34-1.24,9.18-.7,19.17,1.72,28.13.31,1.16,1.39,1.55,2.47,1.4,1.53-.21,2.75-.47,3.72-1.69.53-.66.66-1.91-.3-2.32Z"/>
      <path d="M474.09,244.45c-.9-.39-1.96-.12-2.26.92-.5,1.76.99,3.68.24,5.21-.38.79-1.23,1.3-2.14,1.55-.43-.3-1.09-.2-1.44.17-1.2-.02-2.41-.42-3.28-1.29-1.3-1.31-.73-3.6-.81-5.23-.03-.62-.75-.93-1.21-.5-2.07,1.92-2.22,5.2-.74,7.55,1.33,2.11,3.76,3.09,6.16,3.25.45,3.55.95,7.1,1.12,10.69.22,4.5-.78,8.04-2.11,12.22-.43,1.37,1.29,2.85,2.54,1.95,3.43-2.46,3.53-7.73,3.55-11.58.01-4.52-.66-9.28-2.18-13.63,1.48-.48,2.79-1.41,3.75-2.72,1.59-2.18,1.58-7.37-1.21-8.56Z"/>
      <path d="M275.33,342.62c-.18,0-.18.28,0,.28s.18-.28,0-.28Z"/>
      <path d="M326.21,335.91c-1.99-8.64-10.52-16.8-18.6-8.97-.62.6-.66,1.41-.39,2.09-.62.2-1.14.75-1.14,1.46.02,3.62,2.27,7.8,3.4,11.2,1.49,4.49,2.92,9.02,3.98,13.63.19.83,1.1,1.56,1.96,1.49,10.71-.81,12.81-12.14,10.79-20.91ZM316.92,352.49c-1.02-4-2.29-7.94-3.59-11.86-1.04-3.11-1.96-7.43-3.93-10.3.2-.05.4-.14.6-.28,2.44-1.77,4.72-3.1,7.53-1.32,2.67,1.69,3.96,5.4,4.72,8.27,1.44,5.45.87,13.84-5.33,15.49Z"/>
      <path d="M349.03,346.34c-.94-4.14-4.13-8.22-6.23-11.87-2.85-4.95-5.92-9.88-9.89-14.01-1.32-1.37-3.45-.27-3.54,1.47-.53,9.93,1.8,19.84,2.95,29.66.23,1.94,2.9,2,3.06,0,.2-2.44.15-4.88-.03-7.31,1.2-.1,2.49-.51,3.61-.73,1.21-.24,2.39-.38,3.54-.74,1.11,2.06,2.39,4.02,4.15,5.36,1.22.92,2.65-.59,2.37-1.82ZM338.38,340.26c-1.06.28-2.24.51-3.32.88-.49-4.47-1.24-8.95-1.51-13.44,2.34,3.18,4.34,6.61,6.3,10.02.34.6.67,1.23,1.01,1.88-.85.16-1.7.45-2.47.66Z"/>
      <path d="M364.02,328.24c-1.55-5.27-7.74-16.33-13.95-12.11-.67-.74-2.2-.15-2.33.98-.42,3.67,2.85,30.44,8.57,27.89,3.07,2.14,7.02-1.18,8.12-4.01,1.58-4.04.78-8.71-.41-12.75ZM360.93,338.21c-.55,2.95-2.3,2.58-4.27,3.69-.01-.07-.03-.14-.04-.22-.14-.85-.56-1.7-.83-2.52-.81-2.43-1.48-4.92-2.16-7.39-1.25-4.51-2.25-9.07-3.02-13.68,4.96-.98,8.41,7.9,9.46,11.23.89,2.81,1.42,5.95.87,8.88Z"/>
      <path d="M382,325.15c-1.4-7.43-7.77-15.67-16.09-14.69-.81.1-1.27,1.07-.91,1.65,0,.07-.01.13,0,.2.61,7.16,3.43,14.11,3.8,21.22.1,1.99-.33,7.81,2.04,8.83.68.3,1.33.32,1.88.05.32.32.73.54,1.21.54,8.27-.03,9.16-12.06,8.08-17.79ZM377.77,334.28c-.66,2.3-2.18,3.34-3.8,4.57,0-.03,0-.07,0-.1-.06-.64-.38-1.08-.79-1.33-.03-.27-.06-.54-.09-.8-.17-1.58-.29-3.17-.36-4.76-.12-2.58-1.22-5.32-1.84-7.83-.86-3.51-1.55-7.04-2.22-10.59,4.89,2.07,7.84,6.51,9.2,11.93.74,2.95.75,5.99-.09,8.91Z"/>
      <path d="M392.05,327.11c-.75-3.16-1.32-6.37-2.01-9.54,4.7-3.77,4.38-11.2.83-15.89-1.52-2.01-4.96-.12-3.45,2.02,2.51,3.57,3.49,8.68-.72,11.46-1.3.86-2.73,1.16-3.97.44-2.02-1.17-1.95-4.54-1.93-6.5.01-1.39-2.25-1.76-2.47-.33-.51,3.2-.45,7.06,2.13,9.42,1.89,1.73,4.47,1.77,6.75.96.27,2.63.67,5.25,1.1,7.87.49,3.04.68,7.39,2.79,9.81,1.06,1.22,3.07.22,3.08-1.27,0-2.72-1.47-5.77-2.1-8.43Z"/>
      <path class="cls-2" d="M387.82,350.78c-.17-1.69-1.89-2.4-3.2-1.33-4.65,3.8-11.61,1.26-17.06,1.64-4.05.29-6.73,2.68-7.91,6.07-.41-.47-.83-.9-1.22-1.31-.38-.39-.95-.59-1.5-.54-2.32-1.31-5.03-1.35-7.69.95-4.09,3.54-6.92,11.83-12.69,12.69-1.54.23-1.7,2.25-.85,3.21,7.8,8.8,21.14,5.93,25.81-4.23,10.43,4.79,27.53-5.18,26.32-17.17ZM340.71,371.5c.32-.19.63-.41.93-.64,0,.14.03.28.07.42-.05.28-.04.57.02.85-.35-.19-.69-.4-1.02-.63ZM353.29,371.83c0-.05,0-.1.01-.15,1.42-.58,2.43-2.24,3.07-3.67,0,0,.01,0,.02-.01.27,0,.54-.02.82-.04-1.06,1.63-2.41,2.94-3.92,3.88ZM374.38,354.97c-.11.09-.21.19-.3.3-.23-.11-.47-.22-.76-.3-1.39-.39-2.94-.29-4.41.12-.15-.12-.31-.23-.45-.35-.07-.05-.15-.08-.22-.12,2.03-.14,4.12.15,6.14.33ZM366.37,354.93c-.41.35-.69.84-.74,1.35-.1.02-.2.05-.3.08-.17-.16-.33-.33-.51-.49-.05-.05-.12-.08-.18-.13.49-.34,1.05-.62,1.72-.81ZM362.88,364.34c-.13-.07-.26-.11-.39-.15.03-.13.05-.26.07-.39.28.16.57.29.87.39.14.19.28.39.44.59-.34-.13-.66-.27-.98-.44Z"/>
      <path class="cls-2" d="M304.85,355.72c-1.76-2.04-3.43-4.14-5.07-6.27,1.49-2.18,3.02-4.33,4.59-6.44,1.4-1.88-1.19-3.57-2.84-2.84-2.21.97-4.47,1.8-6.74,2.59-1.62-2.21-3.23-4.44-4.87-6.64-.92-1.24-3.43-1.47-3.75.49-.51,3.12-.79,6.27-.94,9.44-3.81,1.41-7.52,3.04-10.97,5.33-1.82,1.21-1,3.7,1.06,3.91,3.32.33,6.62.81,9.91,1.33.12,3.14.32,6.28.56,9.39.15,1.99,2.96,2,3.1,0,0-.02,0-.04,0-.06.5.02,1.03-.19,1.42-.74,1.57-2.19,2.79-4.69,4.08-7.12,2.98.46,5.97.89,8.98,1.18,1.96.19,2.52-2.32,1.46-3.54ZM289.55,342.49c.07.1.14.2.21.3-.01.26.03.54.15.82.12.23.21.46.3.69-.27.09-.55.18-.83.28.04-.7.09-1.39.15-2.09ZM289.16,358.27c0-.34,0-.68,0-1.02.18.03.37.06.55.09-.19.31-.38.62-.56.93ZM297.01,353.67c.26.26.52.52.8.76-.39-.05-.78-.11-1.18-.16.12-.2.25-.39.38-.59Z"/>
      <path d="M419.9,319.8c-1.27-3.05-4.69-25.8-8.43-24.76-.48.13-.4.96.12.89-1.57.2.07,8.88,1.89,16.09-.39.34-.77.72-1.18,1.07-.71.61-1.47,1.17-2.24,1.7-.51-1.49-1.04-2.92-1.39-4.18-1.37-4.9-2.94-9.81-5.51-14.23-.91-1.56-3.14-.19-2.39,1.4,2.23,4.75,3.41,9.98,4.6,15.07.76,3.23.88,8.62,3.48,11,1.1,1.01,2.55.23,2.71-1.12.2-1.66-.17-3.57-.72-5.48,1.04-.45,2.04-.94,3.01-1.54.17-.11.34-.21.52-.32.79,2.86,1.53,5.13,1.93,5.92,1,1.97,4.45.55,3.6-1.52Z"/>
      <path d="M432.25,302.11c-.67-4.67-2.6-9.81-6.81-12.39-1.18-.72-2.29-.09-2.76.87-.11.02-.22.04-.32.09-.08.06-.16.09-.26.09-.56.09-.92.62-1.1,1.1-1.72,4.6-2.33,10.11-1.1,14.89.91,3.56,5.41,7.63,9.27,5.66,3.56-1.81,3.57-6.93,3.08-10.32ZM426.98,308.88c-4.15.04-3.98-7.02-3.85-9.6.08-1.73.51-3.98.65-5.79,2.61,1.86,3.72,5.35,4.34,8.35.25,1.22,1.08,7.02-1.14,7.04Z"/>
      <path d="M452.88,286.66c-.28-2.29-3.09-2.7-3.95-.54-.83,2.07-2.17,3.94-3.52,5.77-1.18-1.84-2.39-3.66-3.06-5.76-.57-1.77-3.34-1.98-3.79,0-1.51,6.62-1.88,13.79-2.31,20.56-.08,1.22,1.56,1.22,1.96.27,1.82-4.41,2.38-9.37,3.12-14.2.75,1.22,1.53,2.44,2.22,3.72.76,1.4,2.63,1.17,3.43,0,.64-.93,1.3-1.83,1.95-2.75-.08,1.18-.19,2.37-.31,3.55-.28,2.72-2.01,7.25-1.03,9.88.43,1.15,1.95,1.8,2.9.77,1.82-1.99,1.64-5.83,1.97-8.4.54-4.24.93-8.61.42-12.87Z"/>
      <path d="M468.5,288.78c-.94.04-1.89-.07-2.83-.13-.96-.07-2.79-.56-3.64.05-.14.1-.25.21-.35.33-.48-.22-1.11-.07-1.31.58-2.22,7.14-3.45,14.84-5.07,22.15-.31,1.41.62,2.46,1.99,2.61,1.09.11,2.15.44,3.23.64,2.55.48,3.63-3.18,1.08-3.92-.61-.18-1.22-.32-1.84-.45.35-1.62.71-3.28,1.03-4.96.16.07.32.14.47.22.06.03.37.31.21.14.17.19.36.34.57.48.6.43,1.53.23,2.02-.26.68-.68.59-1.67,0-2.36-.68-.79-1.8-.84-2.76-1.11.64-3.77,1.08-7.58,1-11.25.87.42,2.08.47,2.89.59,1.09.16,2.2.34,3.3.42,2.42.17,2.44-3.88,0-3.77Z"/>
    </g>
  </g>
</svg>