<svg width="942" height="319" viewBox="0 0 942 319" fill="none" xmlns="http://www.w3.org/2000/svg">
<path d="M0 17.8834L59.5414 0.121825V229.408H183.967V277.226H0V17.8834Z" fill="url(#paint0_linear_1157_2709)"/>
<path d="M194.609 29.211C194.609 13.255 208.018 0 225.382 0C242.746 0 256.154 13.255 256.154 29.211C256.154 45.1671 242.746 58.4221 225.382 58.4221C208.018 58.4221 194.609 45.1671 194.609 29.211ZM196.562 84.8821L254.151 67.1833V277.433H196.562V84.8821Z" fill="url(#paint1_linear_1157_2709)"/>
<path d="M601.554 67.3145V277.394H543.965V239.179H542.784C531.944 262.788 510.213 277.394 478.259 277.394C473.224 277.394 468.447 277.044 463.875 276.344C430.996 271.592 410.806 249.733 406.285 215.521V156.048C406.285 151.897 405.977 147.995 405.309 144.444C401.97 124.736 389.229 113.782 367.396 113.782C341.555 113.782 325.219 132.239 325.219 159.099V277.394H267.629V67.3145H325.219V105.329H326.4C337.24 81.72 358.919 67.3145 390.873 67.3145C395.908 67.3145 400.737 67.6647 405.309 68.365C438.239 73.1668 458.48 95.075 462.898 129.388L463.875 200.065C467.214 219.772 479.852 230.926 501.737 230.926C527.577 230.926 543.965 212.469 543.965 185.609V67.3145H601.554Z" fill="url(#paint2_linear_1157_2709)"/>
<path d="M630.832 216.705V110.715H601.446V67.3311H630.832V18.1297L689.037 0V67.6667H727.67V110.715H689.037V210.552C689.037 229.76 697.925 236.262 715.289 236.262C720.426 236.262 724.177 235.662 727.721 235.312L728 277.917C720.5 277.917 711.95 278.478 699.929 278.478C652.974 278.478 630.883 260.821 630.883 216.655L630.832 216.705Z" fill="url(#paint3_linear_1157_2709)"/>
<path d="M748.12 316.749V278.474C752.282 279.163 758.962 280.22 767.441 280.22C784.604 280.22 794.059 275.809 799.198 262.944L801.767 256.787L727 67.6667H790.308L834.911 215.48H836.504L881.261 67.6667H942L869.391 260.095C852.845 304.71 824.428 319 777.461 319C766.208 319 754.749 317.759 748.068 316.703L748.12 316.749Z" fill="url(#paint4_linear_1157_2709)"/>
<defs>
<linearGradient id="paint0_linear_1157_2709" x1="156" y1="554.383" x2="922.515" y2="-43.3532" gradientUnits="userSpaceOnUse">
<stop stop-color="#1D174C"/>
<stop offset="0.2" stop-color="#2B2768"/>
<stop offset="0.4" stop-color="#134D7A"/>
<stop offset="0.6" stop-color="#11515D"/>
<stop offset="0.8" stop-color="#156760"/>
<stop offset="1" stop-color="#48BE9A"/>
</linearGradient>
<linearGradient id="paint1_linear_1157_2709" x1="156" y1="554.383" x2="922.515" y2="-43.3532" gradientUnits="userSpaceOnUse">
<stop stop-color="#1D174C"/>
<stop offset="0.2" stop-color="#2B2768"/>
<stop offset="0.4" stop-color="#134D7A"/>
<stop offset="0.6" stop-color="#11515D"/>
<stop offset="0.8" stop-color="#156760"/>
<stop offset="1" stop-color="#48BE9A"/>
</linearGradient>
<linearGradient id="paint2_linear_1157_2709" x1="156" y1="554.383" x2="922.515" y2="-43.3532" gradientUnits="userSpaceOnUse">
<stop stop-color="#1D174C"/>
<stop offset="0.2" stop-color="#2B2768"/>
<stop offset="0.4" stop-color="#134D7A"/>
<stop offset="0.6" stop-color="#11515D"/>
<stop offset="0.8" stop-color="#156760"/>
<stop offset="1" stop-color="#48BE9A"/>
</linearGradient>
<linearGradient id="paint3_linear_1157_2709" x1="156" y1="554.383" x2="922.515" y2="-43.3532" gradientUnits="userSpaceOnUse">
<stop stop-color="#1D174C"/>
<stop offset="0.2" stop-color="#2B2768"/>
<stop offset="0.4" stop-color="#134D7A"/>
<stop offset="0.6" stop-color="#11515D"/>
<stop offset="0.8" stop-color="#156760"/>
<stop offset="1" stop-color="#48BE9A"/>
</linearGradient>
<linearGradient id="paint4_linear_1157_2709" x1="156" y1="554.383" x2="922.515" y2="-43.3532" gradientUnits="userSpaceOnUse">
<stop stop-color="#1D174C"/>
<stop offset="0.2" stop-color="#2B2768"/>
<stop offset="0.4" stop-color="#134D7A"/>
<stop offset="0.6" stop-color="#11515D"/>
<stop offset="0.8" stop-color="#156760"/>
<stop offset="1" stop-color="#48BE9A"/>
</linearGradient>
</defs>
</svg>
