<?xml version="1.0" encoding="UTF-8"?>
<svg id="Layer_2" data-name="Layer 2" xmlns="http://www.w3.org/2000/svg" viewBox="0 0 199.92 71.68">
  <defs>
    <style>
      .cls-1 {
        fill: #231f20;
      }
    </style>
  </defs>
  <g id="Layer_1-2" data-name="Layer 1">
    <g>
      <path class="cls-1" d="M0,2.73h11.59v45.84h24.22v9.56H0V2.73Z"/>
      <path class="cls-1" d="M41.58,5.84c0-3.19,2.61-5.84,5.99-5.84s5.99,2.65,5.99,5.84-2.61,5.84-5.99,5.84-5.99-2.65-5.99-5.84ZM41.96,16.97h11.21v41.16h-11.21V16.97Z"/>
      <path class="cls-1" d="M125.66,16.55v41.16h-11.21v-6.8h-.23c-2.11,4.72-6.34,7.64-12.56,7.64-.98,0-1.91-.07-2.8-.21-6.4-.95-10.33-5.32-11.21-12.16v-11.89c0-.83-.06-1.61-.19-2.32-.65-3.94-3.13-6.13-7.38-6.13-5.03,0-8.21,3.69-8.21,9.06v23.65h-11.21V17.4h11.21v6.75h.23c2.11-4.72,6.33-7.6,12.55-7.6.98,0,1.92.07,2.81.21,6.41.96,10.35,5.34,11.21,12.2l.19,14.13c.65,3.94,3.11,6.17,7.37,6.17,5.03,0,8.22-3.69,8.22-9.06v-23.65h11.21Z"/>
      <path class="cls-1" d="M136.42,46.61v-21.19h-5.72v-8.45h5.72V6.91h11.33v10.06h7.52v8.45h-7.52v19.96c0,3.84,1.73,5.14,5.11,5.14,1,0,1.73-.12,2.42-.19v8.21c-1.27.19-3.07.42-5.41.42-9.14,0-13.44-3.53-13.44-12.36Z"/>
      <path class="cls-1" d="M162.18,71.18v-8.33c.81.15,2.11.38,3.76.38,3.34,0,5.18-.96,6.18-3.76l.5-1.34-14.55-41.16h12.32l8.68,32.17h.31l8.71-32.17h11.82l-14.13,41.88c-3.22,9.71-8.75,12.82-17.89,12.82-2.19,0-4.42-.27-5.72-.5Z"/>
    </g>
  </g>
</svg>